<?xml version="1.0" standalone="no"?>
<!DOCTYPE svg PUBLIC "-//W3C//DTD SVG 1.1//EN" "http://www.w3.org/Graphics/SVG/1.1/DTD/svg11.dtd" >
<svg xmlns="http://www.w3.org/2000/svg" xmlns:xlink="http://www.w3.org/1999/xlink" version="1.1">
<metadata>
Created by FontForge 20200511 at Thu Jun 29 00:33:15 2023
 By convertio
</metadata>
<defs>
<font id="SmilePlasticsStencil-Regular" horiz-adv-x="410" >
  <font-face 
    font-family="Smile Plastics Stencil"
    font-weight="400"
    font-stretch="normal"
    units-per-em="1000"
    panose-1="0 0 5 0 0 0 0 0 0 0"
    ascent="800"
    descent="-200"
    x-height="700"
    cap-height="700"
    bbox="-21 -222 1033 907"
    underline-thickness="50"
    underline-position="-100"
    unicode-range="U+000D-02DD"
  />
<missing-glyph horiz-adv-x="450" 
d="M84 -200v900h285v-900h-285zM300 -16v102h-150v-102h150zM300 -138v30h-92l63 42h29v30h-150v-30h63l-63 -42v-30h150zM150 140h150v102h-90v-50h30v20h30v-42h-90v72h-30v-102zM150 524v-94h150v31h-60v63h-90zM150 577v-30h150v30h-60v33h60v30h-149v-30h59v-33h-60z
M240 313v63h60v30h-150v-30h60v-33h-60v-30h90zM150 262h150v90h-30v-60h-120v-30zM180 57h90v-43h-90v43zM180 493h30v-32h-30v32z" />
    <glyph glyph-name=".notdef" horiz-adv-x="450" 
d="M84 -200v900h285v-900h-285zM300 -16v102h-150v-102h150zM300 -138v30h-92l63 42h29v30h-150v-30h63l-63 -42v-30h150zM150 140h150v102h-90v-50h30v20h30v-42h-90v72h-30v-102zM150 524v-94h150v31h-60v63h-90zM150 577v-30h150v30h-60v33h60v30h-149v-30h59v-33h-60z
M240 313v63h60v30h-150v-30h60v-33h-60v-30h90zM150 262h150v90h-30v-60h-120v-30zM180 57h90v-43h-90v43zM180 493h30v-32h-30v32z" />
    <glyph glyph-name=".null" horiz-adv-x="0" 
 />
    <glyph glyph-name=".null" horiz-adv-x="0" 
 />
    <glyph glyph-name="uni000D" unicode="&#xd;" horiz-adv-x="250" 
 />
    <glyph glyph-name="space" unicode=" " horiz-adv-x="200" 
 />
    <glyph glyph-name="A" unicode="A" horiz-adv-x="671" 
d="M134 276h321l-118 322l-88 -240h-85l125 342h94l253 -700h-83l-69 194h-295l-69 -194h-85z" />
    <glyph glyph-name="B" unicode="B" horiz-adv-x="590" 
d="M252 700h79q38 0 71.5 -14t59 -38.5t40 -57.5t14.5 -70q0 -41 -17 -75.5t-46 -59.5q42 -29 67 -74.5t25 -99.5q0 -44 -16.5 -82.5t-45.5 -67t-68 -45t-84 -16.5h-79v81h79q27 0 50.5 10.5t41 28.5t27.5 41.5t10 49.5t-10 49.5t-27.5 41.5t-41 28.5t-50.5 10.5h-79v82h79
q46 0 73 26.5t27 70.5q0 45 -27 71t-73 26h-79v83zM167 700v-700h-87v700h87z" />
    <glyph glyph-name="C" unicode="C" horiz-adv-x="674" 
d="M45 358q2 75 26 141t68.5 114.5t108 77t142.5 28.5q39 0 71.5 -7.5t60.5 -22t54 -34.5t51 -44l-60 -59q-38 39 -78 61t-99 22q-63 0 -110.5 -21.5t-80 -58.5t-49.5 -87.5t-18 -109.5h-87zM142 276q11 -47 31.5 -85t50.5 -64.5t71.5 -41t94.5 -14.5q60 0 100 22t78 62
l61 -61q-25 -25 -51 -45.5t-54.5 -34.5t-61.5 -21.5t-72 -7.5q-69 0 -126 21.5t-100 60t-71.5 92t-41.5 117.5h91z" />
    <glyph glyph-name="D" unicode="D" horiz-adv-x="705" 
d="M249 700h50q75 0 141 -23.5t114.5 -68.5t77 -110t28.5 -148t-28.5 -148t-77 -110t-114.5 -68.5t-141 -23.5h-50v85h50q59 0 109.5 16.5t88.5 49.5t59.5 83t21.5 116t-21.5 116t-59.5 83t-88.5 49.5t-109.5 16.5h-50v85zM80 700h84v-700h-84v700z" />
    <glyph glyph-name="E" unicode="E" horiz-adv-x="532" 
d="M80 358v342h372v-82h-288v-179h288v-81h-372zM164 276v-193h288v-83h-372v276h84z" />
    <glyph glyph-name="F" unicode="F" horiz-adv-x="532" 
d="M80 358v342h372v-82h-288v-179h288v-81h-372zM164 276v-276h-84v276h84z" />
    <glyph glyph-name="G" unicode="G" horiz-adv-x="744" 
d="M140 276q11 -47 31.5 -85.5t51.5 -65.5t72.5 -41.5t94.5 -14.5t94 16t69 44t42.5 66t14.5 81h-286v82h375v-82q0 -64 -22.5 -117.5t-63 -92t-97.5 -60t-126 -21.5t-126 21.5t-100 60t-71.5 92t-41.5 117.5h89zM130 358h-85q2 75 26 141t68.5 114.5t108 77t142.5 28.5
q39 0 71.5 -7.5t60.5 -22t54 -34.5t51 -44l-60 -59q-38 39 -78 62t-99 23q-63 0 -111 -21.5t-80.5 -59.5t-50 -88.5t-18.5 -109.5z" />
    <glyph glyph-name="H" unicode="H" horiz-adv-x="761" 
d="M165 700v-342h431v342h85v-700h-85v276h-431v-276h-85v700h85z" />
    <glyph glyph-name="I" unicode="I" horiz-adv-x="245" 
d="M165 700v-700h-85v700h85z" />
    <glyph glyph-name="J" unicode="J" horiz-adv-x="588" 
d="M126 199q0 -27 11 -50.5t30.5 -41t47.5 -27.5t61 -10q34 0 61.5 10t47 27.5t30.5 41t11 50.5v501h82v-501q0 -45 -17 -84t-48 -68t-73.5 -45.5t-93.5 -16.5t-93.5 16.5t-73 45.5t-47.5 68t-17 84h81z" />
    <glyph glyph-name="K" unicode="K" horiz-adv-x="585" 
d="M80 700h85v-394l243 394h93l-336 -538v-162h-85v700zM296 276h89l155 -276h-92z" />
    <glyph glyph-name="L" unicode="L" horiz-adv-x="481" 
d="M164 700v-700h-84v700h84zM436 83v-83h-187v83h187z" />
    <glyph glyph-name="M" unicode="M" horiz-adv-x="761" 
d="M190 700l192 -352l210 352h89l-257 -424h-91l-168 310v-586h-85v700h110zM596 276h85v-276h-85v276z" />
    <glyph glyph-name="N" unicode="N" horiz-adv-x="651" 
d="M190 700l380 -700h-88l-317 586v-586h-85v700h110zM486 276v424h85v-424h-85z" />
    <glyph glyph-name="O" unicode="O" horiz-adv-x="780" 
d="M45 358q2 75 26 141t68.5 114.5t108 77t142.5 28.5q80 0 143 -28.5t107.5 -77t69 -114.5t25.5 -141h-85q-1 59 -18.5 109.5t-50 88.5t-80.5 59.5t-111 21.5t-111 -21.5t-80.5 -59.5t-50 -88.5t-18.5 -109.5h-85zM140 276q11 -47 31.5 -85.5t51.5 -65.5t72.5 -41.5
t94.5 -14.5t94.5 14.5t72.5 41.5t51.5 65.5t31.5 85.5h89q-13 -64 -41.5 -117.5t-71.5 -92t-100 -60t-126 -21.5t-126 21.5t-100 60t-71.5 92t-41.5 117.5h89z" />
    <glyph glyph-name="P" unicode="P" horiz-adv-x="590" 
d="M80 700h87v-700h-87v700zM331 700q45 0 84 -17t68 -45.5t45.5 -67t16.5 -82.5t-16.5 -82.5t-45.5 -67t-68 -45t-84 -16.5h-79v81h79q27 0 50.5 10.5t41 28.5t27.5 41.5t10 49.5t-10 49.5t-27.5 41.5t-41 28.5t-50.5 10.5h-79v82h79z" />
    <glyph glyph-name="Q" unicode="Q" horiz-adv-x="780" 
d="M140 276q11 -47 31.5 -85.5t51.5 -65.5t72.5 -41.5t94.5 -14.5t94.5 14.5t72.5 41.5t51.5 65.5t31.5 85.5h89q-11 -55 -33.5 -102t-55.5 -84l95 -170h-88l-66 119q-39 -26 -86.5 -40t-104.5 -14q-69 0 -126 21.5t-100 60t-71.5 92t-41.5 117.5h89zM71 499
q24 66 68.5 114.5t108 77t142.5 28.5q80 0 143 -28.5t107.5 -77t69 -114.5t25.5 -141h-85q-1 59 -18.5 109.5t-50 88.5t-80.5 59.5t-111 21.5t-111 -21.5t-80.5 -59.5t-50 -88.5t-18.5 -109.5h-85q2 75 26 141z" />
    <glyph glyph-name="R" unicode="R" horiz-adv-x="642" 
d="M331 700q45 0 84 -17t68 -45.5t45.5 -67t16.5 -82.5q0 -69 -39 -122t-100 -76l156 -290h-92l-149 277h-69v81h79q27 0 50.5 10.5t41 28.5t27.5 41.5t10 49.5t-10 49.5t-27.5 41.5t-41 28.5t-50.5 10.5h-79v82h79zM80 0v700h87v-700h-87z" />
    <glyph glyph-name="S" unicode="S" horiz-adv-x="590" 
d="M131 235q0 -34 13 -64.5t35 -53t52.5 -35.5t64.5 -13q32 0 62.5 12t55.5 37q24 24 35.5 54t11.5 61.5t-11.5 62t-35.5 54.5l58 61q37 -37 55.5 -83.5t18.5 -94.5t-18.5 -94t-55.5 -82q-36 -36 -82 -54.5t-94 -18.5q-52 0 -98 19.5t-80 53.5t-53.5 80t-19.5 98h86zM45 508
q0 44 17 82q16 38 45 67t67.5 45.5t82.5 16.5q45 0 82.5 -17t67.5 -46l-62 -59q-15 20 -38.5 30.5t-49.5 10.5q-27 0 -50 -10.5t-40 -28.5t-26.5 -41.5t-9.5 -49.5t9.5 -50t26.5 -42t40 -28.5t50 -10.5v-82q-44 0 -82.5 17t-67.5 46t-45.5 67.5t-16.5 82.5z" />
    <glyph glyph-name="T" unicode="T" horiz-adv-x="673" 
d="M638 700v-82h-603v82h603zM380 537v-537h-85v537h85z" />
    <glyph glyph-name="U" unicode="U" horiz-adv-x="663" 
d="M80 199v77h81v-77q0 -27 12.5 -50.5t35 -41t54 -27.5t68.5 -10q38 0 69 10t53.5 27.5t35 41t12.5 50.5v501h82v-501q0 -45 -19 -84t-52.5 -68t-79.5 -45.5t-101 -16.5t-101 16.5t-79.5 45.5t-52 68t-18.5 84zM80 700h84v-342h-84v342z" />
    <glyph glyph-name="V" unicode="V" horiz-adv-x="695" 
d="M45 700h90l217 -598l210 598h88l-248 -700h-104z" />
    <glyph glyph-name="W" unicode="W" horiz-adv-x="1078" 
d="M135 700l197 -598l180 598h90l219 -700h-86l-179 560l-174 -560h-104l-233 700h90zM829 276l116 424h88l-117 -424h-87z" />
    <glyph glyph-name="X" unicode="X" horiz-adv-x="589" 
d="M249 364l-188 336h91l142 -254l142 254h92l-188 -336l204 -364h-92l-158 283l-158 -283h-91z" />
    <glyph glyph-name="Y" unicode="Y" horiz-adv-x="546" 
d="M126 700l147 -262l146 262h92l-192 -342h-93l-191 342h91zM231 0v276h84v-276h-84z" />
    <glyph glyph-name="Z" unicode="Z" horiz-adv-x="651" 
d="M80 618v82h491v-82l-336 -454h-95l332 454h-392zM80 0v82h491v-82h-491z" />
    <glyph glyph-name="J.ss01" horiz-adv-x="588" 
d="M126 199q0 -27 11 -50.5t30.5 -41t47.5 -27.5t61 -10q34 0 61.5 10t47 27.5t30.5 41t11 50.5v77h82v-77q0 -45 -17 -84t-48 -68t-73.5 -45.5t-93.5 -16.5t-93.5 16.5t-73 45.5t-47.5 68t-17 84h81zM424 700h84v-342h-84v342z" />
    <glyph glyph-name="Q.ss01" horiz-adv-x="780" 
d="M71 499q24 66 68.5 114.5t108 77t142.5 28.5q80 0 143 -28.5t107.5 -77t69 -114.5t25.5 -141q0 -60 -13.5 -112t-37.5 -95h-99q26 39 45.5 93t19.5 114q-1 59 -18.5 109.5t-50 88.5t-80.5 59.5t-111 21.5t-111 -21.5t-80.5 -59.5t-50 -88.5t-18.5 -109.5h-85q2 75 26 141
zM51 276h89q11 -47 31.5 -85.5t51.5 -65.5t72.5 -41.5t94.5 -14.5h341v-84h-341q-69 0 -126 21.5t-100 60t-71.5 92t-41.5 117.5z" />
    <glyph glyph-name="S.ss01" horiz-adv-x="589" 
d="M148 166q20 -45 60.5 -71.5t89.5 -26.5t90.5 26.5t61.5 73.5q12 29 12 59q0 3 -0.5 20.5t-13 46.5t-35 52.5t-53.5 35.5l31 79q47 -21 81 -56t52 -78.5t19 -70t1 -29.5q0 -45 -18 -89q-14 -36 -37.5 -64.5t-53.5 -48.5t-65 -30.5t-72 -10.5q-36 0 -70.5 10.5t-64.5 30
t-53 47.5t-37 62zM60 586q26 67 79 100t112 33t112.5 -32.5t81.5 -95.5l-75 -34q-19 41 -51 60.5t-67 19.5t-67 -20.5t-47 -60.5q-10 -24 -10 -49t9 -48t27 -41.5t42 -28.5l-32 -75q-39 16 -68 46t-44.5 67t-16 59t-0.5 24q0 39 15 76z" />
    <glyph glyph-name="W.ss01" horiz-adv-x="761" 
d="M80 0l257 424h91l168 -310v586h85v-700h-110l-192 352l-210 -352h-89zM165 700v-276h-85v276h85z" />
    <glyph glyph-name="S.ss02" horiz-adv-x="593" 
d="M127 55l59 60q23 -21 53 -34t63 -13q34 0 63 13t50.5 34.5t34 51t12.5 62.5q0 34 -12.5 64t-34 52t-50.5 34.5t-63 12.5v84q51 0 96 -19.5t78 -53t52.5 -78.5t19.5 -96q0 -50 -19.5 -94.5t-52.5 -78t-78 -53t-96 -19.5t-96 18.5t-79 52.5zM61 591q16 38 47 68
q30 30 67.5 45t77.5 15q39 0 77 -15t68 -46q31 -30 44.5 -66t13.5 -70v-9h-79q0 26 -9.5 48.5t-26 39t-38.5 26.5t-48 10q-25 0 -48.5 -9.5t-41.5 -27.5q-18 -17 -27.5 -40t-10 -36t-0.5 -14q0 -23 8 -46t26 -41l-55 -55q-31 30 -46 68t-15 77.5t16 77.5z" />
    <glyph glyph-name="W.ss02" horiz-adv-x="761" 
d="M165 700v-560l172 284h91l168 -310v586h85v-700h-110l-192 352l-210 -352h-89v700h85z" />
    <glyph glyph-name="a" unicode="a" horiz-adv-x="671" 
d="M134 276h321l-118 322l-88 -240h-85l125 342h94l253 -700h-83l-69 194h-295l-69 -194h-85z" />
    <glyph glyph-name="b" unicode="b" horiz-adv-x="590" 
d="M331 700q38 0 71.5 -14t59 -38.5t40 -57.5t14.5 -70q0 -41 -17 -75.5t-46 -59.5q42 -29 67 -74.5t25 -99.5q0 -44 -16.5 -82.5t-45.5 -67t-68 -45t-84 -16.5h-79v81h79q27 0 50.5 10.5t41 28.5t27.5 41.5t10 49.5t-10 49.5t-27.5 41.5t-41 28.5t-50.5 10.5h-79v82h79
q46 0 73 26.5t27 70.5q0 45 -27 71t-73 26h-79v83h79zM80 0v700h87v-700h-87z" />
    <glyph glyph-name="c" unicode="c" horiz-adv-x="674" 
d="M45 358q2 75 26 141t68.5 114.5t108 77t142.5 28.5q39 0 71.5 -7.5t60.5 -22t54 -34.5t51 -44l-60 -59q-38 39 -78 61t-99 22q-63 0 -110.5 -21.5t-80 -58.5t-49.5 -87.5t-18 -109.5h-87zM142 276q11 -47 31.5 -85t50.5 -64.5t71.5 -41t94.5 -14.5q60 0 100 22t78 62
l61 -61q-25 -25 -51 -45.5t-54.5 -34.5t-61.5 -21.5t-72 -7.5q-69 0 -126 21.5t-100 60t-71.5 92t-41.5 117.5h91z" />
    <glyph glyph-name="d" unicode="d" horiz-adv-x="705" 
d="M249 700h50q75 0 141 -23.5t114.5 -68.5t77 -110t28.5 -148t-28.5 -148t-77 -110t-114.5 -68.5t-141 -23.5h-50v85h50q59 0 109.5 16.5t88.5 49.5t59.5 83t21.5 116t-21.5 116t-59.5 83t-88.5 49.5t-109.5 16.5h-50v85zM80 700h84v-700h-84v700z" />
    <glyph glyph-name="e" unicode="e" horiz-adv-x="532" 
d="M80 358v342h372v-82h-288v-179h288v-81h-372zM164 276v-193h288v-83h-372v276h84z" />
    <glyph glyph-name="f" unicode="f" horiz-adv-x="532" 
d="M80 358v342h372v-82h-288v-179h288v-81h-372zM164 276v-276h-84v276h84z" />
    <glyph glyph-name="g" unicode="g" horiz-adv-x="744" 
d="M51 276h89q11 -47 31.5 -85.5t51.5 -65.5t72.5 -41.5t94.5 -14.5t94 16t69 44t42.5 66t14.5 81v1h-286v81h375v-82q0 -64 -22.5 -117.5t-63 -92t-97.5 -60t-126 -21.5t-126 21.5t-100 60t-71.5 92t-41.5 117.5zM130 358h-85q2 75 26 141t68.5 114.5t108 77t142.5 28.5
q39 0 71.5 -7.5t60.5 -22t54 -34.5t51 -44l-60 -59q-38 39 -78 62t-99 23q-63 0 -111 -21.5t-80.5 -59.5t-50 -88.5t-18.5 -109.5z" />
    <glyph glyph-name="h" unicode="h" horiz-adv-x="761" 
d="M165 700v-341h431v341h85v-700h-85v276h-431v-276h-85v700h85z" />
    <glyph glyph-name="i" unicode="i" horiz-adv-x="245" 
d="M165 700v-700h-85v700h85z" />
    <glyph glyph-name="j" unicode="j" horiz-adv-x="588" 
d="M126 199q0 -27 11 -50.5t30.5 -41t47.5 -27.5t61 -10q34 0 61.5 10t47 27.5t30.5 41t11 50.5v501h82v-501q0 -45 -17 -84t-48 -68t-73.5 -45.5t-93.5 -16.5t-93.5 16.5t-73 45.5t-47.5 68t-17 84h81z" />
    <glyph glyph-name="k" unicode="k" horiz-adv-x="585" 
d="M80 700h85v-394l243 394h93l-336 -538v-162h-85v700zM296 276h89l155 -276h-92z" />
    <glyph glyph-name="l" unicode="l" horiz-adv-x="481" 
d="M164 700v-700h-84v700h84zM436 83v-83h-187v83h187z" />
    <glyph glyph-name="m" unicode="m" horiz-adv-x="761" 
d="M190 700l192 -352l210 352h89l-257 -424h-91l-168 310v-586h-85v700h110zM596 276h85v-276h-85v276z" />
    <glyph glyph-name="n" unicode="n" horiz-adv-x="651" 
d="M190 700l380 -700h-88l-317 586v-586h-85v700h110zM486 358v342h85v-342h-85z" />
    <glyph glyph-name="o" unicode="o" horiz-adv-x="780" 
d="M45 358q2 75 26 141t68.5 114.5t108 77t142.5 28.5q80 0 143 -28.5t107.5 -77t69 -114.5t25.5 -141h-85q-1 59 -18.5 109.5t-50 88.5t-80.5 59.5t-111 21.5t-111 -21.5t-80.5 -59.5t-50 -88.5t-18.5 -109.5h-85zM140 276q11 -47 31.5 -85.5t51.5 -65.5t72.5 -41.5
t94.5 -14.5t94.5 14.5t72.5 41.5t51.5 65.5t31.5 85.5h89q-13 -64 -41.5 -117.5t-71.5 -92t-100 -60t-126 -21.5t-126 21.5t-100 60t-71.5 92t-41.5 117.5h89z" />
    <glyph glyph-name="p" unicode="p" horiz-adv-x="590" 
d="M80 700h87v-700h-87v700zM331 700q45 0 84 -17t68 -45.5t45.5 -67t16.5 -82.5t-16.5 -82.5t-45.5 -67t-68 -45t-84 -16.5h-79v81h79q27 0 50.5 10.5t41 28.5t27.5 41.5t10 49.5t-10 49.5t-27.5 41.5t-41 28.5t-50.5 10.5h-79v82h79z" />
    <glyph glyph-name="q" unicode="q" horiz-adv-x="780" 
d="M140 276q11 -47 31.5 -85.5t51.5 -65.5t72.5 -41.5t94.5 -14.5t94.5 14.5t72.5 41.5t51.5 65.5t31.5 85.5h89q-11 -55 -33.5 -102t-55.5 -84l95 -170h-88l-66 119q-39 -26 -86.5 -40t-104.5 -14q-69 0 -126 21.5t-100 60t-71.5 92t-41.5 117.5h89zM71 499
q24 66 68.5 114.5t108 77t142.5 28.5q80 0 143 -28.5t107.5 -77t69 -114.5t25.5 -141h-85q-1 59 -18.5 109.5t-50 88.5t-80.5 59.5t-111 21.5t-111 -21.5t-80.5 -59.5t-50 -88.5t-18.5 -109.5h-85q2 75 26 141z" />
    <glyph glyph-name="r" unicode="r" horiz-adv-x="642" 
d="M331 700q45 0 84 -17t68 -45.5t45.5 -67t16.5 -82.5q0 -69 -39 -122t-100 -76l156 -290h-92l-149 277h-69v81h79q27 0 50.5 10.5t41 28.5t27.5 41.5t10 49.5t-10 49.5t-27.5 41.5t-41 28.5t-50.5 10.5h-79v82h79zM80 0v700h87v-700h-87z" />
    <glyph glyph-name="s" unicode="s" horiz-adv-x="590" 
d="M131 235q0 -34 13 -64.5t35 -53t52.5 -35.5t64.5 -13q32 0 62.5 12t55.5 37q24 24 35.5 54t11.5 61.5t-11.5 62t-35.5 54.5l58 61q37 -37 55.5 -83.5t18.5 -94.5t-18.5 -94t-55.5 -82q-36 -36 -82 -54.5t-94 -18.5q-52 0 -98 19.5t-80 53.5t-53.5 80t-19.5 98h86zM45 508
q0 44 17 82q16 38 45 67t67.5 45.5t82.5 16.5q45 0 82.5 -17t67.5 -46l-62 -59q-15 20 -38.5 30.5t-49.5 10.5q-27 0 -50 -10.5t-40 -28.5t-26.5 -41.5t-9.5 -49.5t9.5 -50t26.5 -42t40 -28.5t50 -10.5v-82q-44 0 -82.5 17t-67.5 46t-45.5 67.5t-16.5 82.5z" />
    <glyph glyph-name="t" unicode="t" horiz-adv-x="673" 
d="M638 700v-82h-603v82h603zM380 537v-537h-85v537h85z" />
    <glyph glyph-name="u" unicode="u" horiz-adv-x="663" 
d="M80 199v77h81v-77q0 -27 12.5 -50.5t35 -41t54 -27.5t68.5 -10q38 0 69 10t53.5 27.5t35 41t12.5 50.5v501h82v-501q0 -45 -19 -84t-52.5 -68t-79.5 -45.5t-101 -16.5t-101 16.5t-79.5 45.5t-52 68t-18.5 84zM80 700h84v-342h-84v342z" />
    <glyph glyph-name="v" unicode="v" horiz-adv-x="695" 
d="M45 700h90l217 -598l210 598h88l-248 -700h-104z" />
    <glyph glyph-name="w" unicode="w" horiz-adv-x="1078" 
d="M135 700l197 -598l180 598h90l219 -700h-86l-179 560l-174 -560h-104l-233 700h90zM829 276l116 424h88l-117 -424h-87z" />
    <glyph glyph-name="x" unicode="x" horiz-adv-x="589" 
d="M249 364l-188 336h91l142 -254l142 254h92l-188 -336l204 -364h-92l-158 283l-158 -283h-91z" />
    <glyph glyph-name="y" unicode="y" horiz-adv-x="546" 
d="M126 700l147 -262l146 262h92l-192 -342h-93l-191 342h91zM231 0v276h84v-276h-84z" />
    <glyph glyph-name="z" unicode="z" horiz-adv-x="651" 
d="M80 618v82h491v-82l-336 -454h-95l332 454h-392zM80 0v82h491v-82h-491z" />
    <glyph glyph-name="j.ss01" horiz-adv-x="588" 
d="M126 199q0 -27 11 -50.5t30.5 -41t47.5 -27.5t61 -10q34 0 61.5 10t47 27.5t30.5 41t11 50.5v77h82v-77q0 -45 -17 -84t-48 -68t-73.5 -45.5t-93.5 -16.5t-93.5 16.5t-73 45.5t-47.5 68t-17 84h81zM424 700h84v-342h-84v342z" />
    <glyph glyph-name="q.ss01" horiz-adv-x="780" 
d="M71 499q24 66 68.5 114.5t108 77t142.5 28.5q80 0 143 -28.5t107.5 -77t69 -114.5t25.5 -141q0 -60 -13.5 -112t-37.5 -95h-99q26 39 45.5 93t19.5 114q-1 59 -18.5 109.5t-50 88.5t-80.5 59.5t-111 21.5t-111 -21.5t-80.5 -59.5t-50 -88.5t-18.5 -109.5h-85q2 75 26 141
zM51 276h89q11 -47 31.5 -85.5t51.5 -65.5t72.5 -41.5t94.5 -14.5h341v-84h-341q-69 0 -126 21.5t-100 60t-71.5 92t-41.5 117.5z" />
    <glyph glyph-name="s.ss01" horiz-adv-x="589" 
d="M148 166q20 -45 60.5 -71.5t89.5 -26.5t90.5 26.5t61.5 73.5q12 29 12 59q0 3 -0.5 20.5t-13 46.5t-35 52.5t-53.5 35.5l31 79q47 -21 81 -56t52 -78.5t19 -70t1 -29.5q0 -45 -18 -89q-14 -36 -37.5 -64.5t-53.5 -48.5t-65 -30.5t-72 -10.5q-36 0 -70.5 10.5t-64.5 30
t-53 47.5t-37 62zM60 586q26 67 79 100t112 33t112.5 -32.5t81.5 -95.5l-75 -34q-19 41 -51 60.5t-67 19.5t-67 -20.5t-47 -60.5q-10 -24 -10 -49t9 -48t27 -41.5t42 -28.5l-32 -75q-39 16 -68 46t-44.5 67t-16 59t-0.5 24q0 39 15 76z" />
    <glyph glyph-name="u.ss01" horiz-adv-x="623" 
d="M141 276v-77q0 -27 12.5 -50.5t35 -41t54 -27.5t68.5 -10q38 0 69 10t53.5 27.5t35 41t12.5 50.5v77h82v-77q0 -45 -19 -84t-52.5 -68t-79.5 -45.5t-101 -16.5t-101 16.5t-79.5 45.5t-52 68t-18.5 84v77h81zM479 700h84v-342h-84v342zM60 700h84v-342h-84v342z" />
    <glyph glyph-name="s.ss02" horiz-adv-x="593" 
d="M127 55l59 60q23 -21 53 -34t63 -13q34 0 63 13t50.5 34.5t34 51t12.5 62.5q0 34 -12.5 64t-34 52t-50.5 34.5t-63 12.5v84q51 0 96 -19.5t78 -53t52.5 -78.5t19.5 -96q0 -50 -19.5 -94.5t-52.5 -78t-78 -53t-96 -19.5t-96 18.5t-79 52.5zM61 591q16 38 47 68
q30 30 67.5 45t77.5 15q39 0 77 -15t68 -46q31 -30 44.5 -66t13.5 -70v-9h-79q0 26 -9.5 48.5t-26 39t-38.5 26.5t-48 10q-25 0 -48.5 -9.5t-41.5 -27.5q-18 -17 -27.5 -40t-10 -36t-0.5 -14q0 -23 8 -46t26 -41l-55 -55q-31 30 -46 68t-15 77.5t16 77.5z" />
    <glyph glyph-name="zero" unicode="0" horiz-adv-x="627" 
d="M356 85q48 12 77.5 48.5t29.5 85.5v262q0 49 -29.5 85.5t-77.5 48.5v85q42 -7 77 -27t60.5 -49t39.5 -65.5t14 -77.5v-262q0 -41 -14 -77.5t-39.5 -65.5t-60.5 -49t-77 -27v85zM80 481q0 41 14 77.5t39.5 65.5t60.5 49t77 27v-85q-48 -12 -77.5 -48.5t-29.5 -85.5v-262
q0 -49 29.5 -85.5t77.5 -48.5v-85q-42 7 -77 27t-60.5 49t-39.5 65.5t-14 77.5v262z" />
    <glyph glyph-name="one" unicode="1" horiz-adv-x="400" 
d="M320 700v-700h-85v700h85zM150 617v-82h-90v82h90z" />
    <glyph glyph-name="two" unicode="2" horiz-adv-x="584" 
d="M80 503q0 44 17 82.5t46 67.5t67.5 45.5t82.5 16.5t82 -16.5t67 -45.5t45.5 -67.5t16.5 -82.5q0 -42 -17.5 -72t-46.5 -61l-200 -206h-100l242 261q20 20 30.5 36t10.5 42q0 27 -10.5 50.5t-28.5 41t-41.5 28t-49.5 10.5t-50 -10.5t-42 -28t-28.5 -41t-10.5 -50.5h-82z
M80 0v82h424v-82h-424z" />
    <glyph glyph-name="three" unicode="3" horiz-adv-x="534" 
d="M45 194h82q0 -27 12 -49.5t32 -39t45.5 -25.5t51.5 -9t51.5 9.5t45 26.5t31.5 40t12 50q0 20 -6.5 41.5t-21 39t-38.5 28.5t-60 11h-57v82h57q62 0 102 -21t63.5 -51.5t32.5 -65.5t9 -64q0 -44 -18 -82.5t-49 -67.5t-70.5 -45.5t-83.5 -16.5t-84.5 16t-71 44.5t-49 66.5
t-18.5 82zM81 586q15 38 42 67t64 45.5t81 16.5t80.5 -16.5t63.5 -45.5t42 -67.5t15 -82.5q0 -34 -11 -69l-77 28q3 10 5 20t2 21q0 27 -9 50.5t-25 41t-38 28t-48 10.5t-48.5 -10.5t-38.5 -28t-25 -41t-9 -50.5h-82q0 44 16 83z" />
    <glyph glyph-name="four" unicode="4" horiz-adv-x="553" 
d="M508 276h-428v424h84v-342h156v82h84v-82h104v-82zM404 194v-194h-84v194h84z" />
    <glyph glyph-name="five" unicode="5" horiz-adv-x="614" 
d="M162 194q0 -27 12 -49.5t32 -39t45.5 -25.5t51.5 -9q30 0 57 10t48 29t33 46t12 61q0 28 -8 53.5t-24.5 45t-42 31t-61.5 11.5h-48v82h48q62 0 103.5 -21.5t67 -54t36 -72t10.5 -75.5q0 -51 -18.5 -94t-50 -73.5t-73.5 -47.5t-89 -17q-44 0 -84.5 16t-71 44.5t-49 66.5
t-18.5 82h82zM105 358v342h372v-82h-288v-260h-84z" />
    <glyph glyph-name="six" unicode="6" horiz-adv-x="545" 
d="M45 212q0 47 18 88.5t49 72.5t72.5 49t88.5 18t88.5 -18t72 -49t48.5 -72.5t18 -88.5t-18 -88.5t-48.5 -72t-72 -48.5t-88.5 -18t-88.5 18t-72.5 48.5t-49 72t-18 88.5zM141 157q11 -26 30.5 -45.5t45.5 -30.5t56 -11t55.5 11t45 30.5t30.5 45t11 55.5t-11 56t-30.5 45.5
t-45 30.5t-55.5 11t-56 -11t-45.5 -30.5t-30.5 -45.5t-11 -56t11 -55zM268 700h97l-132 -219h-95z" />
    <glyph glyph-name="seven" unicode="7" horiz-adv-x="559" 
d="M479 700v-82h-399v82h399zM183 0l196 537h90l-195 -537h-91z" />
    <glyph glyph-name="eight" unicode="8" horiz-adv-x="555" 
d="M45 207q0 59 27.5 107.5t74.5 78.5q-30 26 -47.5 62t-17.5 78q0 33 11.5 63.5t32 54.5t48.5 40.5t62 23.5v-78q-35 -11 -55 -38t-20 -62t20 -62t55 -38v-95q-49 -12 -78.5 -49t-29.5 -86q0 -48 29.5 -85t78.5 -49v-85q-42 7 -77 27t-60.5 49t-39.5 65.5t-14 77.5z
M382 692q28 -17 48.5 -41t32 -54.5t11.5 -63.5q0 -42 -17.5 -78t-48.5 -62q47 -30 74.5 -78.5t27.5 -107.5q0 -41 -14 -77.5t-39.5 -65.5t-60 -49t-76.5 -27v85q48 12 77.5 49t29.5 85q0 49 -29.5 86t-77.5 49v94q35 11 55 38.5t20 62.5t-20 62.5t-55 38.5v77q34 -7 62 -23z
" />
    <glyph glyph-name="nine" unicode="9" horiz-adv-x="516" 
d="M76 594q15 36 42 63t63 42.5t76 15.5q41 0 77 -15.5t63 -42.5t43 -63t16 -77t-16 -77t-43 -63t-63 -42.5t-77 -15.5q-40 0 -76 15.5t-63 42.5t-42.5 63t-15.5 77t16 77zM148 470q9 -22 25 -38t37.5 -25t46.5 -9q26 0 47.5 9t38 25t25.5 38t9 47t-9 47t-25.5 38t-38 25
t-47.5 9q-25 0 -46.5 -9t-37.5 -25t-25 -38t-9 -47t9 -47zM136 0l166 276h95l-164 -276h-97z" />
    <glyph glyph-name="three.medi" horiz-adv-x="534" 
d="M45 30h82q0 -27 12 -49.5t32 -39t45.5 -25.5t51.5 -9t51.5 9.5t45 26.5t31.5 40t12 50q0 20 -6.5 41.5t-21 39t-38.5 28.5t-60 11h-57v82h57q62 0 102 -21t63.5 -51.5t32.5 -65.5t9 -64q0 -44 -18 -82.5t-49 -67.5t-70.5 -45.5t-83.5 -16.5t-84.5 16t-71 44.5t-49 66.5
t-18.5 82zM81 422q15 38 42 67t64 45.5t81 16.5t80.5 -16.5t63.5 -45.5t42 -67.5t15 -82.5q0 -34 -11 -69l-77 28q3 10 5 20t2 21q0 27 -9 50.5t-25 41t-38 28t-48 10.5t-48.5 -10.5t-38.5 -28t-25 -41t-9 -50.5h-82q0 44 16 83z" />
    <glyph glyph-name="four.medi" horiz-adv-x="588" 
d="M508 111h-428v424h84v-342h156v82h84v-82h104v-82zM404 29v-194h-84v194h84z" />
    <glyph glyph-name="five.medi" horiz-adv-x="614" 
d="M162 30q0 -27 12 -49.5t32 -39t45.5 -25.5t51.5 -9q30 0 57 10t48 29t33 46t12 61q0 28 -8 53.5t-24.5 45t-42 31t-61.5 11.5h-48v82h48q62 0 103.5 -21.5t67 -54t36 -72t10.5 -75.5q0 -51 -18.5 -94t-50 -73.5t-73.5 -47.5t-89 -17q-44 0 -84.5 16t-71 44.5t-49 66.5
t-18.5 82h82zM105 194v342h372v-82h-288v-260h-84z" />
    <glyph glyph-name="seven.medi" horiz-adv-x="559" 
d="M479 536v-82h-399v82h399zM183 -164l196 537h90l-195 -537h-91z" />
    <glyph glyph-name="nine.medi" horiz-adv-x="556" 
d="M96 430q15 36 42 63t63 42.5t76 15.5q41 0 77 -15.5t63 -42.5t43 -63t16 -77t-16 -77t-43 -63t-63 -42.5t-77 -15.5q-40 0 -76 15.5t-63 42.5t-42.5 63t-15.5 77t16 77zM168 306q9 -22 25 -38t37.5 -25t46.5 -9q26 0 47.5 9t38 25t25.5 38t9 47t-9 47t-25.5 38t-38 25
t-47.5 9q-25 0 -46.5 -9t-37.5 -25t-25 -38t-9 -47t9 -47zM156 -164l166 276h95l-164 -276h-97z" />
    <glyph glyph-name="one.ss01" horiz-adv-x="385" 
d="M147 440h-87l156 260h89zM301 358v-358h-85v358h85z" />
    <glyph glyph-name="four.ss01" horiz-adv-x="553" 
d="M320 276v82h84v-82h104v-82h-104v-194h-84v194h-240v82h240zM207 358h-87l206 342h89z" />
    <glyph glyph-name="period" unicode="." horiz-adv-x="202" 
d="M146 90v-90h-90v90h90z" />
    <glyph glyph-name="comma" unicode="," horiz-adv-x="216" 
d="M156 90v-90h-90v90h90zM0 -200l67 118h89l-64 -118h-92z" />
    <glyph glyph-name="exclam" unicode="!" horiz-adv-x="250" 
d="M167 700v-503h-84v503h84zM170 90v-90h-90v90h90z" />
    <glyph glyph-name="question" unicode="?" horiz-adv-x="514" 
d="M45 503q0 44 17 82.5t46 67.5t67.5 45.5t82.5 16.5t82 -16.5t67 -45.5t45.5 -67.5t16.5 -82.5q0 -42 -15 -79.5t-41 -66.5q-12 -13 -31.5 -28t-37.5 -33.5t-31.5 -42.5t-13.5 -56h-82q0 40 17 74t40 61t45.5 47.5t34.5 33.5q34 37 34 90q0 27 -10.5 50t-28.5 40
t-41.5 26.5t-49.5 9.5t-50 -9.5t-42 -26.5t-28.5 -40t-10.5 -50h-82zM213 90h90v-90h-90v90z" />
    <glyph glyph-name="hyphen" unicode="-" horiz-adv-x="551" 
d="M60 276v82h431v-82h-431z" />
    <glyph glyph-name="percent" unicode="%" horiz-adv-x="1102" 
d="M80 517q0 41 15.5 77t42.5 63t63 42.5t76 15.5q41 0 77 -15.5t63 -42.5t43 -63t16 -77t-16 -77t-43 -63t-63 -42.5t-77 -15.5q-40 0 -76 15.5t-63 42.5t-42.5 63t-15.5 77zM642 259q15 36 42 63t63 42.5t76 15.5q41 0 77 -15.5t63 -42.5t43 -63t16 -77t-16 -77t-43 -63
t-63 -42.5t-77 -15.5q-40 0 -76 15.5t-63 42.5t-42.5 63t-15.5 77t16 77zM247 0l514 700h99l-518 -700h-95zM714 135q9 -22 25 -38t37.5 -25t46.5 -9q26 0 47.5 9t38 25t25.5 38t9 47t-9 47t-25.5 38t-38 25t-47.5 9q-25 0 -46.5 -9t-37.5 -25t-25 -38t-9 -47t9 -47z
M168 470q9 -22 25 -38t37.5 -25t46.5 -9q26 0 47.5 9t38 25t25.5 38t9 47t-9 47t-25.5 38t-38 25t-47.5 9q-25 0 -46.5 -9t-37.5 -25t-25 -38t-9 -47t9 -47z" />
    <glyph glyph-name="tilde" unicode="&#x2dc;" 
d="M43 570q1 59 28 89q27 29 67 29q23 0 42 -8t35 -17.5t29.5 -17.5t25.5 -8q17 0 23.5 11.5t8.5 31.5q2 6 6 6h55q6 0 6 -5q-2 -66 -26.5 -93t-63.5 -27q-21 0 -38.5 8t-33.5 17t-31 17t-30 8q-31 0 -37 -43q0 -2 -1 -4t-3 -2h-56q-6 0 -6 8z" />
    <glyph glyph-name="asciitilde" unicode="~" horiz-adv-x="568" 
d="M49 191v16q0 35 7 61q8 32 24.5 52.5t39 29.5t48.5 9q17 0 32 -3t30 -9.5t31.5 -17.5t36.5 -26q37 -28 57.5 -40t42.5 -12q27 0 38.5 20t11.5 63v14q0 5 6 5h59q6 0 6 -5q1 -12 1 -23q0 -34 -8 -63t-25 -48.5t-39 -27.5t-45 -8q-33 0 -61 11.5t-70 43.5q-36 26 -56 40.5
t-42 14.5q-11 0 -21 -4t-18 -15t-11.5 -28t-3.5 -39v-12q0 -6 -6 -6h-60q-5 0 -5 7z" />
    <glyph glyph-name="breve" unicode="&#x2d8;" 
d="M57 687h67q5 0 6 -4q8 -26 26.5 -40.5t47.5 -14.5q28 0 48 12.5t29 41.5q1 5 5 5h68q4 0 4 -5q-11 -59 -50.5 -93.5t-103.5 -34.5q-60 0 -100.5 32t-51.5 95q0 6 5 6z" />
    <glyph glyph-name="dotaccent" unicode="&#x2d9;" 
d="M147 629q0 26 16.5 42.5t42.5 16.5q27 0 42 -16.5t15 -42.5t-16 -42t-42 -16t-42 16t-16 42z" />
    <glyph glyph-name="ring" unicode="&#x2da;" 
d="M132 703q27 25 72 25t73.5 -25.5t28.5 -66.5q0 -42 -28.5 -67.5t-73.5 -25.5t-72.5 24.5t-27.5 68.5q0 41 28 67zM158 636q0 -21 13 -33t33 -12t33.5 12t13.5 33t-13.5 33t-33.5 12t-33 -12t-13 -33z" />
    <glyph glyph-name="hungarumlaut" unicode="&#x2dd;" 
d="M81 559q0 2 1 5l71 136q3 7 12 7h73q4 0 4.5 -2t0.5 -3q0 -2 -1 -4l-84 -138q-2 -4 -4 -5.5t-8 -1.5h-59q-5 0 -5.5 2.5t-0.5 3.5zM247 560q0 2 1 4l72 137q2 6 10 6h74q5 0 5.5 -2t0.5 -3q0 -2 -1 -3l-85 -139q-2 -3 -4.5 -4.5t-8.5 -1.5h-57q-5 0 -6 2t-1 4z" />
    <glyph glyph-name="ogonek" unicode="&#x2db;" 
d="M93 -120q0 42 36 80.5t91 67.5h77q-61 -33 -86.5 -63t-25.5 -58q0 -22 15 -35t44 -13q32 0 51 7h2q5 0 5 -5v-54q0 -8 -6 -12q-14 -7 -35 -11t-46 -4q-22 0 -43.5 5t-39 17t-28.5 31t-11 47z" />
    <glyph glyph-name="caron" unicode="&#x2c7;" 
d="M62 700v1q1 2 4 2h70q6 0 9 -4l64 -94l64 95q2 3 7 3h64q4 0 5 -1v-2q0 -2 -2 -4l-95 -138q-4 -4 -8 -4h-74q-6 0 -8 5l-99 138q-1 1 -1 3z" />
    <glyph glyph-name="dotlessi" unicode="&#x131;" horiz-adv-x="253" 
d="M76 8v475q0 6 7 6h86q7 0 7 -6v-476q0 -7 -7 -7h-85q-8 0 -8 8z" />
    <glyph glyph-name="grave" unicode="`" 
d="M80 707h75q6 0 10 -7l99 -140q1 -2 1 -4t-4 -2h-77q-6 0 -11 5l-97 141q-2 2 -2 4q0 3 6 3z" />
    <glyph glyph-name="grave" unicode="&#x2cb;" 
d="M80 707h75q6 0 10 -7l99 -140q1 -2 1 -4t-4 -2h-77q-6 0 -11 5l-97 141q-2 2 -2 4q0 3 6 3z" />
    <glyph glyph-name="circumflex" unicode="&#x2c6;" 
d="M63 560l96 138q2 4 7 4h74q6 0 9 -4l99 -138q1 -1 1 -2t-1 -3t-4 -2h-79q-5 0 -6.5 1t-3.5 3l-54 84l-53 -84q-4 -4 -8 -4h-74q-3 0 -3.5 1.5t-0.5 2.5q0 2 1 3z" />
    <glyph glyph-name="dieresis" unicode="&#xa8;" 
d="M61 629q0 25 15 40q15 14 38 14q22 0 36 -15t14 -39q0 -25 -15 -39t-37 -14q-23 0 -37 14t-14 39zM244 629q0 25 16 40q15 14 37 14q23 0 36.5 -15t13.5 -39t-14.5 -38.5t-37.5 -14.5q-22 0 -36.5 14t-14.5 39z" />
    <glyph glyph-name="acute" unicode="&#xb4;" 
d="M155 560l99 140q4 7 10 7h75q6 0 6 -3q0 -2 -2 -4l-97 -141q-5 -5 -11 -5h-77q-4 0 -4 2t1 4z" />
    <glyph glyph-name="acute" unicode="&#x2ca;" 
d="M155 560l99 140q4 7 10 7h75q6 0 6 -3q0 -2 -2 -4l-97 -141q-5 -5 -11 -5h-77q-4 0 -4 2t1 4z" />
    <glyph glyph-name="cedilla" unicode="&#xb8;" 
d="M113 -157q0 5 4 5h2q14 -7 30.5 -10t30.5 -3q20 0 32 7t12 24q0 19 -21.5 31.5t-69.5 18.5q-2 2 -2 10.5t2 10.5l52 70h63l-35 -49q83 -23 83 -90q0 -40 -31 -65t-79 -25q-20 0 -38.5 3.5t-29.5 9.5q-3 2 -4 3.5t-1 6.5v42z" />
    <glyph glyph-name="Egrave" unicode="&#xc8;" horiz-adv-x="532" 
d="M80 358v342h372v-82h-288v-179h288v-81h-372zM164 276v-193h288v-83h-372v276h84zM181 907h75q6 0 10 -7l99 -140q1 -2 1 -4t-4 -2h-77q-6 0 -11 5l-97 141q-2 2 -2 4q0 3 6 3z" />
    <glyph glyph-name="Eacute" unicode="&#xc9;" horiz-adv-x="532" 
d="M80 358v342h372v-82h-288v-179h288v-81h-372zM164 276v-193h288v-83h-372v276h84zM162 760l99 140q4 7 10 7h75q6 0 6 -3q0 -2 -2 -4l-97 -141q-5 -5 -11 -5h-77q-4 0 -4 2t1 4z" />
    <glyph glyph-name="Agrave" unicode="&#xc0;" horiz-adv-x="671" 
d="M134 276h321l-118 322l-88 -240h-85l125 342h94l253 -700h-83l-69 194h-295l-69 -194h-85zM250 907h75q6 0 10 -7l99 -140q1 -2 1 -4t-4 -2h-77q-6 0 -11 5l-97 141q-2 2 -2 4q0 3 6 3z" />
    <glyph glyph-name="Ugrave" unicode="&#xd9;" horiz-adv-x="663" 
d="M80 199v77h81v-77q0 -27 12.5 -50.5t35 -41t54 -27.5t68.5 -10q38 0 69 10t53.5 27.5t35 41t12.5 50.5v501h82v-501q0 -45 -19 -84t-52.5 -68t-79.5 -45.5t-101 -16.5t-101 16.5t-79.5 45.5t-52 68t-18.5 84zM80 700h84v-342h-84v342zM246 907h75q6 0 10 -7l99 -140
q1 -2 1 -4t-4 -2h-77q-6 0 -11 5l-97 141q-2 2 -2 4q0 3 6 3z" />
    <glyph glyph-name="Ecircumflex" unicode="&#xca;" horiz-adv-x="532" 
d="M80 358v342h372v-82h-288v-179h288v-81h-372zM164 276v-193h288v-83h-372v276h84zM124 760l96 138q2 4 7 4h74q6 0 9 -4l99 -138q1 -1 1 -2t-1 -3t-4 -2h-79q-5 0 -6.5 1t-3.5 3l-54 84l-53 -84q-4 -4 -8 -4h-74q-3 0 -3.5 1.5t-0.5 2.5q0 2 1 3z" />
    <glyph glyph-name="Udieresis" unicode="&#xdc;" horiz-adv-x="663" 
d="M80 199v77h81v-77q0 -27 12.5 -50.5t35 -41t54 -27.5t68.5 -10q38 0 69 10t53.5 27.5t35 41t12.5 50.5v501h82v-501q0 -45 -19 -84t-52.5 -68t-79.5 -45.5t-101 -16.5t-101 16.5t-79.5 45.5t-52 68t-18.5 84zM80 700h84v-342h-84v342zM189 829q0 25 15 40q15 14 38 14
q22 0 36 -15t14 -39q0 -25 -15 -39t-37 -14q-23 0 -37 14t-14 39zM372 829q0 25 16 40q15 14 37 14q23 0 36.5 -15t13.5 -39t-14.5 -38.5t-37.5 -14.5q-22 0 -36.5 14t-14.5 39z" />
    <glyph glyph-name="Acircumflex" unicode="&#xc2;" horiz-adv-x="671" 
d="M134 276h321l-118 322l-88 -240h-85l125 342h94l253 -700h-83l-69 194h-295l-69 -194h-85zM193 760l96 138q2 4 7 4h74q6 0 9 -4l99 -138q1 -1 1 -2t-1 -3t-4 -2h-79q-5 0 -6.5 1t-3.5 3l-54 84l-53 -84q-4 -4 -8 -4h-74q-3 0 -3.5 1.5t-0.5 2.5q0 2 1 3z" />
    <glyph glyph-name="Edieresis" unicode="&#xcb;" horiz-adv-x="532" 
d="M80 358v342h372v-82h-288v-179h288v-81h-372zM164 276v-193h288v-83h-372v276h84zM123 829q0 25 15 40q15 14 38 14q22 0 36 -15t14 -39q0 -25 -15 -39t-37 -14q-23 0 -37 14t-14 39zM306 829q0 25 16 40q15 14 37 14q23 0 36.5 -15t13.5 -39t-14.5 -38.5t-37.5 -14.5
q-22 0 -36.5 14t-14.5 39z" />
    <glyph glyph-name="Idieresis" unicode="&#xcf;" horiz-adv-x="245" 
d="M165 700v-700h-85v700h85zM-21 829q0 25 15 40q15 14 38 14q22 0 36 -15t14 -39q0 -25 -15 -39t-37 -14q-23 0 -37 14t-14 39zM162 829q0 25 16 40q15 14 37 14q23 0 36.5 -15t13.5 -39t-14.5 -38.5t-37.5 -14.5q-22 0 -36.5 14t-14.5 39z" />
    <glyph glyph-name="Icircumflex" unicode="&#xce;" horiz-adv-x="245" 
d="M165 700v-700h-85v700h85zM-20 760l96 138q2 4 7 4h74q6 0 9 -4l99 -138q1 -1 1 -2t-1 -3t-4 -2h-79q-5 0 -6.5 1t-3.5 3l-54 84l-53 -84q-4 -4 -8 -4h-74q-3 0 -3.5 1.5t-0.5 2.5q0 2 1 3z" />
    <glyph glyph-name="Ocircumflex" unicode="&#xd4;" horiz-adv-x="780" 
d="M45 358q2 75 26 141t68.5 114.5t108 77t142.5 28.5q80 0 143 -28.5t107.5 -77t69 -114.5t25.5 -141h-85q-1 59 -18.5 109.5t-50 88.5t-80.5 59.5t-111 21.5t-111 -21.5t-80.5 -59.5t-50 -88.5t-18.5 -109.5h-85zM140 276q11 -47 31.5 -85.5t51.5 -65.5t72.5 -41.5
t94.5 -14.5t94.5 14.5t72.5 41.5t51.5 65.5t31.5 85.5h89q-13 -64 -41.5 -117.5t-71.5 -92t-100 -60t-126 -21.5t-126 21.5t-100 60t-71.5 92t-41.5 117.5h89zM248 760l96 138q2 4 7 4h74q6 0 9 -4l99 -138q1 -1 1 -2t-1 -3t-4 -2h-79q-5 0 -6.5 1t-3.5 3l-54 84l-53 -84
q-4 -4 -8 -4h-74q-3 0 -3.5 1.5t-0.5 2.5q0 2 1 3z" />
    <glyph glyph-name="Ucircumflex" unicode="&#xdb;" horiz-adv-x="663" 
d="M80 199v77h81v-77q0 -27 12.5 -50.5t35 -41t54 -27.5t68.5 -10q38 0 69 10t53.5 27.5t35 41t12.5 50.5v501h82v-501q0 -45 -19 -84t-52.5 -68t-79.5 -45.5t-101 -16.5t-101 16.5t-79.5 45.5t-52 68t-18.5 84zM80 700h84v-342h-84v342zM189 760l96 138q2 4 7 4h74
q6 0 9 -4l99 -138q1 -1 1 -2t-1 -3t-4 -2h-79q-5 0 -6.5 1t-3.5 3l-54 84l-53 -84q-4 -4 -8 -4h-74q-3 0 -3.5 1.5t-0.5 2.5q0 2 1 3z" />
    <glyph glyph-name="Ccedilla" unicode="&#xc7;" horiz-adv-x="674" 
d="M45 358q2 75 26 141t68.5 114.5t108 77t142.5 28.5q39 0 71.5 -7.5t60.5 -22t54 -34.5t51 -44l-60 -59q-38 39 -78 61t-99 22q-63 0 -110.5 -21.5t-80 -58.5t-49.5 -87.5t-18 -109.5h-87zM142 276q11 -47 31.5 -85t50.5 -64.5t71.5 -41t94.5 -14.5q60 0 100 22t78 62
l61 -61q-25 -25 -51 -45.5t-54.5 -34.5t-61.5 -21.5t-72 -7.5q-69 0 -126 21.5t-100 60t-71.5 92t-41.5 117.5h91zM246 -157q0 5 4 5h2q14 -7 30.5 -10t30.5 -3q20 0 32 7t12 24q0 19 -21.5 31.5t-69.5 18.5q-2 2 -2 10.5t2 10.5l52 70h63l-35 -49q83 -23 83 -90
q0 -40 -31 -65t-79 -25q-20 0 -38.5 3.5t-29.5 9.5q-3 2 -4 3.5t-1 6.5v42z" />
    <glyph glyph-name="germandbls" unicode="&#xdf;" horiz-adv-x="547" 
d="M252 136q24 -43 47 -60t50 -17q36 0 61 24q25 25 25 57q0 27 -15 45q-5 6 -18 16.5t-35 25.5q-39 26 -62.5 46t-33.5 34q-8 11 -12.5 23t-5.5 24h91q2 -2 3 -4.5t3 -4.5q9 -14 56 -45q64 -42 85 -67q30 -36 30 -86q0 -64 -48 -111q-49 -47 -123 -47q-58 0 -104 32
q-22 16 -38.5 36t-27.5 45zM36 469q0 87 21 132q20 44 65 70v-172q-1 -8 -1 -16v-482h-85v468zM206 628v70q8 1 15.5 1.5t15.5 0.5q80 0 127 -41q46 -40 46 -94q0 -11 -1.5 -23.5t-6.5 -25.5q-9 -25 -30 -63q-4 -7 -7.5 -13t-5.5 -11h-86q3 7 7 14.5t9 15.5q24 41 32 61
q7 20 7 37q0 30 -25 51q-26 23 -68 23q-15 0 -29 -3z" />
    <glyph glyph-name="agrave" unicode="&#xe0;" horiz-adv-x="671" 
d="M134 276h321l-118 322l-88 -240h-85l125 342h94l253 -700h-83l-69 194h-295l-69 -194h-85zM250 907h75q6 0 10 -7l99 -140q1 -2 1 -4t-4 -2h-77q-6 0 -11 5l-97 141q-2 2 -2 4q0 3 6 3z" />
    <glyph glyph-name="acircumflex" unicode="&#xe2;" horiz-adv-x="671" 
d="M134 276h321l-118 322l-88 -240h-85l125 342h94l253 -700h-83l-69 194h-295l-69 -194h-85zM193 760l96 138q2 4 7 4h74q6 0 9 -4l99 -138q1 -1 1 -2t-1 -3t-4 -2h-79q-5 0 -6.5 1t-3.5 3l-54 84l-53 -84q-4 -4 -8 -4h-74q-3 0 -3.5 1.5t-0.5 2.5q0 2 1 3z" />
    <glyph glyph-name="ccedilla" unicode="&#xe7;" horiz-adv-x="674" 
d="M45 358q2 75 26 141t68.5 114.5t108 77t142.5 28.5q39 0 71.5 -7.5t60.5 -22t54 -34.5t51 -44l-60 -59q-38 39 -78 61t-99 22q-63 0 -110.5 -21.5t-80 -58.5t-49.5 -87.5t-18 -109.5h-87zM142 276q11 -47 31.5 -85t50.5 -64.5t71.5 -41t94.5 -14.5q60 0 100 22t78 62
l61 -61q-25 -25 -51 -45.5t-54.5 -34.5t-61.5 -21.5t-72 -7.5q-69 0 -126 21.5t-100 60t-71.5 92t-41.5 117.5h91zM246 -157q0 5 4 5h2q14 -7 30.5 -10t30.5 -3q20 0 32 7t12 24q0 19 -21.5 31.5t-69.5 18.5q-2 2 -2 10.5t2 10.5l52 70h63l-35 -49q83 -23 83 -90
q0 -40 -31 -65t-79 -25q-20 0 -38.5 3.5t-29.5 9.5q-3 2 -4 3.5t-1 6.5v42z" />
    <glyph glyph-name="egrave" unicode="&#xe8;" horiz-adv-x="532" 
d="M80 358v342h372v-82h-288v-179h288v-81h-372zM164 276v-193h288v-83h-372v276h84zM181 907h75q6 0 10 -7l99 -140q1 -2 1 -4t-4 -2h-77q-6 0 -11 5l-97 141q-2 2 -2 4q0 3 6 3z" />
    <glyph glyph-name="eacute" unicode="&#xe9;" horiz-adv-x="532" 
d="M80 358v342h372v-82h-288v-179h288v-81h-372zM164 276v-193h288v-83h-372v276h84zM162 760l99 140q4 7 10 7h75q6 0 6 -3q0 -2 -2 -4l-97 -141q-5 -5 -11 -5h-77q-4 0 -4 2t1 4z" />
    <glyph glyph-name="ecircumflex" unicode="&#xea;" horiz-adv-x="532" 
d="M80 358v342h372v-82h-288v-179h288v-81h-372zM164 276v-193h288v-83h-372v276h84zM124 760l96 138q2 4 7 4h74q6 0 9 -4l99 -138q1 -1 1 -2t-1 -3t-4 -2h-79q-5 0 -6.5 1t-3.5 3l-54 84l-53 -84q-4 -4 -8 -4h-74q-3 0 -3.5 1.5t-0.5 2.5q0 2 1 3z" />
    <glyph glyph-name="edieresis" unicode="&#xeb;" horiz-adv-x="532" 
d="M80 358v342h372v-82h-288v-179h288v-81h-372zM164 276v-193h288v-83h-372v276h84zM123 829q0 25 15 40q15 14 38 14q22 0 36 -15t14 -39q0 -25 -15 -39t-37 -14q-23 0 -37 14t-14 39zM306 829q0 25 16 40q15 14 37 14q23 0 36.5 -15t13.5 -39t-14.5 -38.5t-37.5 -14.5
q-22 0 -36.5 14t-14.5 39z" />
    <glyph glyph-name="icircumflex" unicode="&#xee;" horiz-adv-x="245" 
d="M165 700v-700h-85v700h85zM-20 760l96 138q2 4 7 4h74q6 0 9 -4l99 -138q1 -1 1 -2t-1 -3t-4 -2h-79q-5 0 -6.5 1t-3.5 3l-54 84l-53 -84q-4 -4 -8 -4h-74q-3 0 -3.5 1.5t-0.5 2.5q0 2 1 3z" />
    <glyph glyph-name="idieresis" unicode="&#xef;" horiz-adv-x="245" 
d="M165 700v-700h-85v700h85zM-21 829q0 25 15 40q15 14 38 14q22 0 36 -15t14 -39q0 -25 -15 -39t-37 -14q-23 0 -37 14t-14 39zM162 829q0 25 16 40q15 14 37 14q23 0 36.5 -15t13.5 -39t-14.5 -38.5t-37.5 -14.5q-22 0 -36.5 14t-14.5 39z" />
    <glyph glyph-name="ocircumflex" unicode="&#xf4;" horiz-adv-x="780" 
d="M45 358q2 75 26 141t68.5 114.5t108 77t142.5 28.5q80 0 143 -28.5t107.5 -77t69 -114.5t25.5 -141h-85q-1 59 -18.5 109.5t-50 88.5t-80.5 59.5t-111 21.5t-111 -21.5t-80.5 -59.5t-50 -88.5t-18.5 -109.5h-85zM140 276q11 -47 31.5 -85.5t51.5 -65.5t72.5 -41.5
t94.5 -14.5t94.5 14.5t72.5 41.5t51.5 65.5t31.5 85.5h89q-13 -64 -41.5 -117.5t-71.5 -92t-100 -60t-126 -21.5t-126 21.5t-100 60t-71.5 92t-41.5 117.5h89zM248 760l96 138q2 4 7 4h74q6 0 9 -4l99 -138q1 -1 1 -2t-1 -3t-4 -2h-79q-5 0 -6.5 1t-3.5 3l-54 84l-53 -84
q-4 -4 -8 -4h-74q-3 0 -3.5 1.5t-0.5 2.5q0 2 1 3z" />
    <glyph glyph-name="ugrave" unicode="&#xf9;" horiz-adv-x="663" 
d="M80 199v77h81v-77q0 -27 12.5 -50.5t35 -41t54 -27.5t68.5 -10q38 0 69 10t53.5 27.5t35 41t12.5 50.5v501h82v-501q0 -45 -19 -84t-52.5 -68t-79.5 -45.5t-101 -16.5t-101 16.5t-79.5 45.5t-52 68t-18.5 84zM80 700h84v-342h-84v342zM246 907h75q6 0 10 -7l99 -140
q1 -2 1 -4t-4 -2h-77q-6 0 -11 5l-97 141q-2 2 -2 4q0 3 6 3z" />
    <glyph glyph-name="ucircumflex" unicode="&#xfb;" horiz-adv-x="663" 
d="M80 199v77h81v-77q0 -27 12.5 -50.5t35 -41t54 -27.5t68.5 -10q38 0 69 10t53.5 27.5t35 41t12.5 50.5v501h82v-501q0 -45 -19 -84t-52.5 -68t-79.5 -45.5t-101 -16.5t-101 16.5t-79.5 45.5t-52 68t-18.5 84zM80 700h84v-342h-84v342zM189 760l96 138q2 4 7 4h74
q6 0 9 -4l99 -138q1 -1 1 -2t-1 -3t-4 -2h-79q-5 0 -6.5 1t-3.5 3l-54 84l-53 -84q-4 -4 -8 -4h-74q-3 0 -3.5 1.5t-0.5 2.5q0 2 1 3z" />
    <glyph glyph-name="udieresis" unicode="&#xfc;" horiz-adv-x="663" 
d="M80 199v77h81v-77q0 -27 12.5 -50.5t35 -41t54 -27.5t68.5 -10q38 0 69 10t53.5 27.5t35 41t12.5 50.5v501h82v-501q0 -45 -19 -84t-52.5 -68t-79.5 -45.5t-101 -16.5t-101 16.5t-79.5 45.5t-52 68t-18.5 84zM80 700h84v-342h-84v342zM189 829q0 25 15 40q15 14 38 14
q22 0 36 -15t14 -39q0 -25 -15 -39t-37 -14q-23 0 -37 14t-14 39zM372 829q0 25 16 40q15 14 37 14q23 0 36.5 -15t13.5 -39t-14.5 -38.5t-37.5 -14.5q-22 0 -36.5 14t-14.5 39z" />
    </font>
</defs>
</svg>
