<?xml version="1.0" standalone="no"?>
<!DOCTYPE svg PUBLIC "-//W3C//DTD SVG 1.1//EN" "http://www.w3.org/Graphics/SVG/1.1/DTD/svg11.dtd" >
<svg xmlns="http://www.w3.org/2000/svg" xmlns:xlink="http://www.w3.org/1999/xlink" version="1.1">
<metadata>
Created by FontForge 20170731 at Sun Mar 21 00:42:17 2021
 By Aleksey,,,
copyright missing
</metadata>
<defs>
<font id="SmilePlasticsStencil-Regular" horiz-adv-x="1208" >
  <font-face 
    font-family="Smile Plastics Stencil"
    font-weight="400"
    font-stretch="normal"
    units-per-em="2048"
    panose-1="0 0 5 0 0 0 0 0 0 0"
    ascent="1638"
    descent="-410"
    x-height="1434"
    cap-height="1434"
    bbox="0 -410 2116 1473"
    underline-thickness="102"
    underline-position="-307"
    unicode-range="U+0020-007A"
  />
<missing-glyph horiz-adv-x="921" 
d="M172 1434h584v-1844h-584v1844zM614 1249v62h-305v-62h121v-67h-123v-62h307v62h-122v67h122zM492 944v129h-185v-192h307v63h-122zM369 1010h61v-66h-61v66zM614 770v61h-307v-61h123v-68h-123v-61h185v129h122zM614 537v184h-61v-123h-246v-61h307zM614 287v209h-184
v-103h62v41h61v-86h-184v148h-62v-209h307zM614 -33v209h-307v-209h307zM369 117h184v-88h-184v88zM614 -135v61h-307v-61h129l-129 -86v-62h307v62h-188l129 86h59z" />
    <glyph glyph-name=".notdef" horiz-adv-x="921" 
d="M172 1434h584v-1844h-584v1844zM614 1249v62h-305v-62h121v-67h-123v-62h307v62h-122v67h122zM492 944v129h-185v-192h307v63h-122zM369 1010h61v-66h-61v66zM614 770v61h-307v-61h123v-68h-123v-61h185v129h122zM614 537v184h-61v-123h-246v-61h307zM614 287v209h-184
v-103h62v41h61v-86h-184v148h-62v-209h307zM614 -33v209h-307v-209h307zM369 117h184v-88h-184v88zM614 -135v61h-307v-61h129l-129 -86v-62h307v62h-188l129 86h59z" />
    <glyph glyph-name=".null" horiz-adv-x="0" 
 />
    <glyph glyph-name="nonmarkingreturn" horiz-adv-x="682" 
 />
    <glyph glyph-name="space" unicode=" " horiz-adv-x="409" 
 />
    <glyph glyph-name="exclam" unicode="!" horiz-adv-x="512" 
d="M170 1434h172v-1031h-172v1031zM164 184h184v-184h-184v184z" />
    <glyph glyph-name="percent" unicode="%" horiz-adv-x="2256" 
d="M567 1464q167 0 287.5 -119.5t120.5 -285.5q0 -167 -120.5 -286.5t-287.5 -119.5q-166 0 -284.5 119.5t-118.5 286.5q0 166 118.5 285.5t284.5 119.5zM700 0h-194l1053 1434h202zM567 1303q-101 0 -171 -70.5t-70 -173.5t70 -173.5t171 -70.5q104 0 175 70.5t71 173.5
t-71 173.5t-175 70.5zM1686 778q167 0 287 -119.5t120 -285.5q0 -167 -120 -286.5t-287 -119.5q-166 0 -285 119.5t-119 286.5q0 166 119 285.5t285 119.5zM1686 616q-102 0 -172 -70t-70 -173t70.5 -173.5t171.5 -70.5q104 0 174.5 70.5t70.5 173.5t-70.5 173t-174.5 70z
" />
    <glyph glyph-name="comma" unicode="," horiz-adv-x="442" 
d="M135 184h184v-184h-184v184zM188 -410h-188l137 242h182z" />
    <glyph glyph-name="hyphen" unicode="-" horiz-adv-x="1128" 
d="M1006 565h-883v168h883v-168z" />
    <glyph glyph-name="period" unicode="." horiz-adv-x="413" 
d="M115 184h184v-184h-184v184z" />
    <glyph glyph-name="zero" unicode="0" horiz-adv-x="1284" 
d="M164 449v536q0 167 110.5 293.5t280.5 155.5v-174q-99 -25 -159 -100.5t-60 -174.5v-536q0 -99 60 -174.5t159 -100.5v-174q-170 29 -280.5 155.5t-110.5 293.5zM729 1260v174q170 -29 280.5 -155.5t110.5 -293.5v-536q0 -167 -110.5 -293.5t-280.5 -155.5v174
q99 25 159 100.5t60 174.5v536q0 99 -60 174.5t-159 100.5z" />
    <glyph glyph-name="one" unicode="1" horiz-adv-x="819" 
d="M481 1434h174v-1434h-174v1434zM123 1264h184v-168h-184v168z" />
    <glyph glyph-name="two" unicode="2" horiz-adv-x="1196" 
d="M600 1296q-108 0 -188 -79t-80 -187h-168q0 180 128 307t308 127q179 0 305.5 -127t126.5 -307q0 -80 -32 -141t-99 -131l-409 -422h-205l495 534q46 46 65 78.5t19 81.5q0 108 -79 187t-187 79zM1032 0h-868v168h868v-168z" />
    <glyph glyph-name="three" unicode="3" horiz-adv-x="1093" 
d="M549 1296q-106 0 -177 -78t-71 -188h-168q0 182 119 308t297 126q177 0 294.5 -126t117.5 -308q0 -67 -23 -141l-158 57q15 51 15 84q0 110 -70 188t-176 78zM461 817h117q97 0 173.5 -28.5t122 -72t75.5 -101t41 -109.5t11 -103q0 -117 -63 -217.5t-167 -158.5t-222 -58
q-119 0 -224 56t-169 155.5t-64 216.5h168q0 -105 89 -178.5t200 -73.5q110 0 198.5 76t88.5 182q0 45 -13.5 86t-42 78t-80.5 59.5t-122 22.5h-117v168z" />
    <glyph glyph-name="four" unicode="4" horiz-adv-x="1132" 
d="M827 901v-168h213v-168h-876v869h172v-701h319v168h172zM827 0h-172v397h172v-397z" />
    <glyph glyph-name="five" unicode="5" horiz-adv-x="1257" 
d="M977 1266h-590v-533h-172v701h762v-168zM551 901h98q97 0 175.5 -29t127.5 -75t82 -107.5t46.5 -122t13.5 -123.5q0 -207 -138 -341t-335 -134q-119 0 -224 56t-169 155.5t-64 216.5h168q0 -105 89 -178.5t200 -73.5q128 0 217.5 82t89.5 217q0 124 -70.5 206.5
t-208.5 82.5h-98v168z" />
    <glyph glyph-name="six" unicode="6" horiz-adv-x="1116" 
d="M748 1434l-271 -449h-194l266 449h199zM559 -31q-193 0 -330 136.5t-137 328.5q0 127 62.5 234.5t170 170t234.5 62.5q192 0 328.5 -137t136.5 -330q0 -192 -136.5 -328.5t-328.5 -136.5zM559 143q121 0 206 84.5t85 206.5q0 123 -84.5 208t-206.5 85q-123 0 -208 -85
t-85 -208q0 -122 85 -206.5t208 -84.5z" />
    <glyph glyph-name="seven" unicode="7" horiz-adv-x="1144" 
d="M164 1434h817v-168h-817v168zM561 0h-186l401 1100h185z" />
    <glyph glyph-name="eight" unicode="8" horiz-adv-x="1136" 
d="M168 1092q0 136 88.5 240t226.5 132v-159q-70 -23 -111.5 -78.5t-41.5 -126.5t41.5 -126.5t111.5 -78.5v-195q-100 -25 -160.5 -100.5t-60.5 -175.5q0 -98 60.5 -173.5t160.5 -100.5v-175q-170 29 -280.5 155.5t-110.5 293.5q0 118 56 218t153 163q-63 53 -98 127.5
t-35 159.5zM836 805q97 -62 152.5 -162.5t55.5 -218.5q0 -167 -109.5 -293.5t-279.5 -155.5v175q98 25 158.5 100.5t60.5 173.5q0 100 -60.5 175.5t-158.5 100.5v193q70 23 112 79.5t42 127.5t-42 127.5t-112 79.5v157q138 -28 227 -132t89 -240q0 -174 -135 -287z" />
    <glyph glyph-name="nine" unicode="9" horiz-adv-x="1056" 
d="M526 1464q167 0 287.5 -119.5t120.5 -285.5q0 -167 -120.5 -286.5t-287.5 -119.5q-166 0 -284.5 119.5t-118.5 286.5q0 166 118.5 285.5t284.5 119.5zM526 1303q-101 0 -171 -70.5t-70 -173.5t70 -173.5t171 -70.5q104 0 175 70.5t71 173.5t-71 173.5t-175 70.5zM279 0
l339 565h195l-336 -565h-198z" />
    <glyph glyph-name="question" unicode="?" horiz-adv-x="1052" 
d="M528 1464q179 0 306 -127t127 -307q0 -171 -115 -299q-15 -17 -49 -44.5t-63 -53.5t-58 -59.5t-46.5 -77.5t-17.5 -93h-168q0 62 22 122t59.5 109.5t72 86t75 74t52.5 51.5q70 76 70 184t-79.5 183t-187.5 75q-109 0 -188.5 -75.5t-79.5 -182.5h-168q0 180 128 307
t308 127zM621 0h-185v184h185v-184z" />
    <glyph glyph-name="A" unicode="A" horiz-adv-x="1374" 
d="M1303 0h-170l-142 397h-604l-141 -397h-174l202 565h658l-242 660l-180 -492h-174l256 701h192z" />
    <glyph glyph-name="B" unicode="B" 
d="M342 0h-178v1434h178v-1434zM928 788q87 -59 137.5 -153t50.5 -203q0 -180 -127.5 -306t-310.5 -126h-162v166h162q109 0 186.5 79.5t77.5 186.5q0 108 -77.5 187t-186.5 79h-162v168h162q93 0 149 54.5t56 144.5q0 91 -55.5 145t-149.5 54h-162v170h162
q156 0 267.5 -108.5t111.5 -260.5q0 -81 -34.5 -153t-94.5 -124z" />
    <glyph glyph-name="C" unicode="C" horiz-adv-x="1380" 
d="M270 733h-178q3 154 53.5 288.5t139.5 235t222 158.5t292 58q149 0 259 -55.5t226 -166.5l-123 -121q-85 87 -166.5 128.5t-195.5 41.5q-166 0 -286.5 -76t-180 -202.5t-62.5 -288.5zM1163 317l125 -124q-113 -113 -225 -168.5t-264 -55.5q-277 0 -459 163.5t-236 432.5
h187q99 -420 508 -420q116 0 198 41.5t166 130.5z" />
    <glyph glyph-name="D" unicode="D" horiz-adv-x="1443" 
d="M336 0h-172v1434h172v-1434zM510 1434h102q154 0 288.5 -48.5t235 -138.5t158.5 -226.5t58 -303.5t-58 -303.5t-158.5 -226.5t-235 -138.5t-288.5 -48.5h-102v174h102q121 0 224 34.5t181 100.5t122.5 171t44.5 237t-44.5 237t-122.5 171t-181 100.5t-224 34.5h-102v174z
" />
    <glyph glyph-name="E" unicode="E" horiz-adv-x="1089" 
d="M926 1434v-168h-590v-367h590v-166h-762v701h762zM164 565h172v-395h590v-170h-762v565z" />
    <glyph glyph-name="F" unicode="F" horiz-adv-x="1089" 
d="M926 1434v-168h-590v-367h590v-166h-762v701h762zM336 565v-565h-172v565h172z" />
    <glyph glyph-name="G" unicode="G" horiz-adv-x="1523" 
d="M799 1305q-125 0 -226 -44.5t-167 -122t-102 -181t-38 -224.5h-174q3 154 53.5 288.5t139.5 235t222 158.5t292 58q149 0 259 -55.5t226 -166.5l-123 -121q-87 89 -168 132t-194 43zM1432 733v-168q0 -264 -175 -430t-458 -166q-277 0 -459 163.5t-236 432.5h183
q48 -202 174.5 -313t337.5 -111t330.5 120t119.5 304h-585v168h768z" />
    <glyph glyph-name="H" unicode="H" horiz-adv-x="1558" 
d="M1221 733v701h174v-1434h-174v565h-883v-565h-174v1434h174v-701h883z" />
    <glyph glyph-name="I" unicode="I" horiz-adv-x="501" 
d="M164 1434h174v-1434h-174v1434z" />
    <glyph glyph-name="J" unicode="J" horiz-adv-x="1204" 
d="M872 1434h168v-1026q0 -185 -134 -312t-341 -127q-208 0 -340.5 126.5t-132.5 312.5h166q0 -112 86.5 -188.5t220.5 -76.5q136 0 221.5 76.5t85.5 188.5v1026z" />
    <glyph glyph-name="K" unicode="K" horiz-adv-x="1198" 
d="M338 627l498 807h190l-688 -1102v-332h-174v1434h174v-807zM606 565h182l318 -565h-188z" />
    <glyph glyph-name="L" unicode="L" horiz-adv-x="985" 
d="M164 1434h172v-1434h-172v1434zM510 170h383v-170h-383v170z" />
    <glyph glyph-name="M" unicode="M" horiz-adv-x="1558" 
d="M782 713l430 721h183l-527 -869h-186l-344 635v-1200h-174v1434h225zM1221 565h174v-565h-174v565z" />
    <glyph glyph-name="N" unicode="N" horiz-adv-x="1333" 
d="M389 1434l778 -1434h-180l-649 1200v-1200h-174v1434h225zM995 1434h174v-869h-174v869z" />
    <glyph glyph-name="O" unicode="O" horiz-adv-x="1597" 
d="M799 1305q-125 0 -226 -44.5t-167 -122t-102 -181t-38 -224.5h-174q3 154 53.5 288.5t139.5 235t222 158.5t292 58t291.5 -58t221.5 -158.5t139.5 -235t53.5 -288.5h-174q-2 121 -38 224.5t-101.5 181t-166.5 122t-226 44.5zM799 141q211 0 337.5 111t174.5 313h182
q-54 -269 -235.5 -432.5t-458.5 -163.5t-459 163.5t-236 432.5h183q48 -202 174.5 -313t337.5 -111z" />
    <glyph glyph-name="P" unicode="P" 
d="M164 1434h178v-1434h-178v1434zM1116 999q0 -180 -127.5 -306t-310.5 -126h-162v166h162q109 0 186.5 79.5t77.5 186.5q0 108 -77.5 187.5t-186.5 79.5h-162v168h162q182 0 310 -128t128 -307z" />
    <glyph glyph-name="Q" unicode="Q" horiz-adv-x="1597" 
d="M799 1305q-125 0 -226 -44.5t-167 -122t-102 -181t-38 -224.5h-174q3 154 53.5 288.5t139.5 235t222 158.5t292 58t291.5 -58t221.5 -158.5t139.5 -235t53.5 -288.5h-174q-2 121 -38 224.5t-101.5 181t-166.5 122t-226 44.5zM1311 565h182q-48 -232 -182 -381l194 -348
h-180l-135 244q-168 -111 -391 -111q-277 0 -459 163.5t-236 432.5h183q48 -202 174.5 -313t337.5 -111t337.5 111t174.5 313z" />
    <glyph glyph-name="R" unicode="R" horiz-adv-x="1314" 
d="M342 0h-178v1434h178v-1434zM831 594l320 -594h-188l-306 567h-141v166h162q109 0 186.5 79.5t77.5 186.5q0 108 -77.5 187.5t-186.5 79.5h-162v168h162q182 0 310 -128t128 -307q0 -138 -79.5 -248.5t-205.5 -156.5z" />
    <glyph glyph-name="S" unicode="S" 
d="M526 772v-168q-180 0 -307 128t-127 308q0 179 127 306t307 127q171 0 308 -130l-127 -120q-31 40 -79 62t-102 22q-108 0 -183 -79.5t-75 -187.5q0 -109 75.5 -188.5t182.5 -79.5zM848 717l119 125q99 -99 134 -231.5t0 -264.5t-134 -229q-149 -149 -360.5 -149
t-362.5 149q-74 73 -113 167.5t-39 196.5h176q0 -140 99 -239q100 -101 239 -101t242 101q97 98 97 236.5t-97 238.5z" />
    <glyph glyph-name="T" unicode="T" horiz-adv-x="1378" 
d="M72 1434h1235v-168h-1235v168zM604 1100h174v-1100h-174v1100z" />
    <glyph glyph-name="U" unicode="U" horiz-adv-x="1357" 
d="M1026 1434h168v-1026q0 -185 -147 -312t-369 -127q-223 0 -368.5 127t-145.5 312v157h166v-157q0 -112 98.5 -188.5t249.5 -76.5q152 0 250 76.5t98 188.5v1026zM164 1434h172v-701h-172v701z" />
    <glyph glyph-name="V" unicode="V" horiz-adv-x="1423" 
d="M721 209l430 1225h180l-508 -1434h-213l-518 1434h184z" />
    <glyph glyph-name="W" unicode="W" horiz-adv-x="2207" 
d="M1049 1434h184l448 -1434h-176l-366 1147l-357 -1147h-213l-477 1434h184l404 -1225zM1698 565l237 869h181l-240 -869h-178z" />
    <glyph glyph-name="X" unicode="X" horiz-adv-x="1206" 
d="M696 745l418 -745h-188l-324 580l-323 -580h-187l418 745l-385 689h186l291 -521l291 521h188z" />
    <glyph glyph-name="Y" unicode="Y" horiz-adv-x="1118" 
d="M559 897l299 537h189l-394 -701h-190l-391 701h186zM645 0h-172v565h172v-565z" />
    <glyph glyph-name="Z" unicode="Z" horiz-adv-x="1333" 
d="M164 1266v168h1005v-168l-688 -930h-194l680 930h-803zM1169 0h-1005v168h1005v-168z" />
    <glyph glyph-name="a" unicode="a" horiz-adv-x="1374" 
d="M1303 0h-170l-142 397h-604l-141 -397h-174l202 565h658l-242 660l-180 -492h-174l256 701h192z" />
    <glyph glyph-name="b" unicode="b" 
d="M342 0h-178v1434h178v-1434zM928 788q87 -59 137.5 -153t50.5 -203q0 -180 -127.5 -306t-310.5 -126h-162v166h162q109 0 186.5 79.5t77.5 186.5q0 108 -77.5 187t-186.5 79h-162v168h162q93 0 149 54.5t56 144.5q0 91 -55.5 145t-149.5 54h-162v170h162
q156 0 267.5 -108.5t111.5 -260.5q0 -81 -34.5 -153t-94.5 -124z" />
    <glyph glyph-name="c" unicode="c" horiz-adv-x="1380" 
d="M270 733h-178q3 154 53.5 288.5t139.5 235t222 158.5t292 58q149 0 259 -55.5t226 -166.5l-123 -121q-85 87 -166.5 128.5t-195.5 41.5q-166 0 -286.5 -76t-180 -202.5t-62.5 -288.5zM1163 317l125 -124q-113 -113 -225 -168.5t-264 -55.5q-277 0 -459 163.5t-236 432.5
h187q99 -420 508 -420q116 0 198 41.5t166 130.5z" />
    <glyph glyph-name="d" unicode="d" horiz-adv-x="1443" 
d="M336 0h-172v1434h172v-1434zM510 1434h102q154 0 288.5 -48.5t235 -138.5t158.5 -226.5t58 -303.5t-58 -303.5t-158.5 -226.5t-235 -138.5t-288.5 -48.5h-102v174h102q121 0 224 34.5t181 100.5t122.5 171t44.5 237t-44.5 237t-122.5 171t-181 100.5t-224 34.5h-102v174z
" />
    <glyph glyph-name="e" unicode="e" horiz-adv-x="1089" 
d="M926 1434v-168h-590v-367h590v-166h-762v701h762zM336 565v-395h590v-170h-762v565h172z" />
    <glyph glyph-name="f" unicode="f" horiz-adv-x="1089" 
d="M926 1434v-168h-590v-367h590v-166h-762v701h762zM336 565v-565h-172v565h172z" />
    <glyph glyph-name="g" unicode="g" horiz-adv-x="1523" 
d="M799 1305q-125 0 -226 -44.5t-167 -122t-102 -181t-38 -224.5h-174q3 154 53.5 288.5t139.5 235t222 158.5t292 58q149 0 259 -55.5t226 -166.5l-123 -121q-87 89 -168 132t-194 43zM1432 733v-168q0 -264 -175 -430t-458 -166q-277 0 -459 163.5t-236 432.5h183
q48 -202 174.5 -313t337.5 -111t330.5 120t119.5 304v2h-585v166h768z" />
    <glyph glyph-name="h" unicode="h" horiz-adv-x="1558" 
d="M1221 735v699h174v-1434h-174v565h-883v-565h-174v1434h174v-699h883z" />
    <glyph glyph-name="i" unicode="i" horiz-adv-x="501" 
d="M164 1434h174v-1434h-174v1434z" />
    <glyph glyph-name="j" unicode="j" horiz-adv-x="1204" 
d="M872 1434h168v-1026q0 -185 -134 -312t-341 -127q-208 0 -340.5 126.5t-132.5 312.5h166q0 -112 86.5 -188.5t220.5 -76.5q136 0 221.5 76.5t85.5 188.5v1026z" />
    <glyph glyph-name="k" unicode="k" horiz-adv-x="1198" 
d="M338 627l498 807h190l-688 -1102v-332h-174v1434h174v-807zM606 565h182l318 -565h-188z" />
    <glyph glyph-name="l" unicode="l" horiz-adv-x="985" 
d="M164 1434h172v-1434h-172v1434zM510 170h383v-170h-383v170z" />
    <glyph glyph-name="m" unicode="m" horiz-adv-x="1558" 
d="M782 713l430 721h183l-527 -869h-186l-344 635v-1200h-174v1434h225zM1221 565h174v-565h-174v565z" />
    <glyph glyph-name="n" unicode="n" horiz-adv-x="1333" 
d="M389 1434l778 -1434h-180l-649 1200v-1200h-174v1434h225zM995 1434h174v-701h-174v701z" />
    <glyph glyph-name="o" unicode="o" horiz-adv-x="1597" 
d="M799 1305q-125 0 -226 -44.5t-167 -122t-102 -181t-38 -224.5h-174q3 154 53.5 288.5t139.5 235t222 158.5t292 58t291.5 -58t221.5 -158.5t139.5 -235t53.5 -288.5h-174q-2 121 -38 224.5t-101.5 181t-166.5 122t-226 44.5zM799 141q211 0 337.5 111t174.5 313h182
q-54 -269 -235.5 -432.5t-458.5 -163.5t-459 163.5t-236 432.5h183q48 -202 174.5 -313t337.5 -111z" />
    <glyph glyph-name="p" unicode="p" 
d="M164 1434h178v-1434h-178v1434zM1116 999q0 -180 -127.5 -306t-310.5 -126h-162v166h162q109 0 186.5 79.5t77.5 186.5q0 108 -77.5 187.5t-186.5 79.5h-162v168h162q182 0 310 -128t128 -307z" />
    <glyph glyph-name="q" unicode="q" horiz-adv-x="1597" 
d="M799 1305q-125 0 -226 -44.5t-167 -122t-102 -181t-38 -224.5h-174q3 154 53.5 288.5t139.5 235t222 158.5t292 58t291.5 -58t221.5 -158.5t139.5 -235t53.5 -288.5h-174q-2 121 -38 224.5t-101.5 181t-166.5 122t-226 44.5zM1311 565h182q-48 -232 -182 -381l194 -348
h-180l-135 244q-168 -111 -391 -111q-277 0 -459 163.5t-236 432.5h183q48 -202 174.5 -313t337.5 -111t337.5 111t174.5 313z" />
    <glyph glyph-name="r" unicode="r" horiz-adv-x="1314" 
d="M342 0h-178v1434h178v-1434zM831 594l320 -594h-188l-306 567h-141v166h162q109 0 186.5 79.5t77.5 186.5q0 108 -77.5 187.5t-186.5 79.5h-162v168h162q182 0 310 -128t128 -307q0 -138 -79.5 -248.5t-205.5 -156.5z" />
    <glyph glyph-name="s" unicode="s" 
d="M526 772v-168q-180 0 -307 128t-127 308q0 179 127 306t307 127q171 0 308 -130l-127 -120q-31 40 -79 62t-102 22q-108 0 -183 -79.5t-75 -187.5q0 -109 75.5 -188.5t182.5 -79.5zM848 717l119 125q99 -99 134 -231.5t0 -264.5t-134 -229q-149 -149 -360.5 -149
t-362.5 149q-74 73 -113 167.5t-39 196.5h176q0 -140 99 -239q100 -101 239 -101t242 101q97 98 97 236.5t-97 238.5z" />
    <glyph glyph-name="t" unicode="t" horiz-adv-x="1378" 
d="M72 1434h1235v-168h-1235v168zM604 1100h174v-1100h-174v1100z" />
    <glyph glyph-name="u" unicode="u" horiz-adv-x="1357" 
d="M1026 1434h168v-1026q0 -185 -147 -312t-369 -127q-223 0 -368.5 127t-145.5 312v157h166v-157q0 -112 98.5 -188.5t249.5 -76.5q152 0 250 76.5t98 188.5v1026zM164 1434h172v-701h-172v701z" />
    <glyph glyph-name="v" unicode="v" horiz-adv-x="1423" 
d="M721 209l430 1225h180l-508 -1434h-213l-518 1434h184z" />
    <glyph glyph-name="w" unicode="w" horiz-adv-x="2207" 
d="M1049 1434h184l448 -1434h-176l-366 1147l-357 -1147h-213l-477 1434h184l404 -1225zM1698 565l237 869h181l-240 -869h-178z" />
    <glyph glyph-name="x" unicode="x" horiz-adv-x="1206" 
d="M696 745l418 -745h-188l-324 580l-323 -580h-187l418 745l-385 689h186l291 -521l291 521h188z" />
    <glyph glyph-name="y" unicode="y" horiz-adv-x="1118" 
d="M559 897l299 537h189l-394 -701h-190l-391 701h186zM645 0h-172v565h172v-565z" />
    <glyph glyph-name="z" unicode="z" horiz-adv-x="1333" 
d="M164 1266v168h1005v-168l-688 -930h-194l680 930h-803zM1169 0h-1005v168h1005v-168z" />
    <glyph glyph-name="J.ss01" horiz-adv-x="1204" 
d="M868 1434h172v-701h-172v701zM565 -31q-208 0 -340.5 126.5t-132.5 312.5h166q0 -112 86.5 -188.5t220.5 -76.5q136 0 221.5 76.5t85.5 188.5v157h168v-157q0 -185 -134 -312t-341 -127z" />
    <glyph glyph-name="Q.ss01" horiz-adv-x="1597" 
d="M799 1305q-125 0 -226 -44.5t-167 -122t-102 -181t-38 -224.5h-174q3 154 53.5 288.5t139.5 235t222 158.5t292 58t291.5 -58t221.5 -158.5t139.5 -235t53.5 -288.5q0 -240 -104 -424h-203q58 87 95.5 198.5t37.5 225.5q-2 121 -38 224.5t-101.5 181t-166.5 122
t-226 44.5zM104 565h183q48 -202 174.5 -313t337.5 -111h698v-172h-698q-277 0 -459 163.5t-236 432.5z" />
    <glyph glyph-name="S.ss01" horiz-adv-x="1206" 
d="M422 797l-66 -154q-105 43 -175 136t-85 201.5t27 219.5q34 88 96.5 151t136.5 91.5t157 28.5t157.5 -28.5t139 -88.5t101.5 -144l-153 -69q-30 65 -81 106.5t-108 51.5t-113 -2.5t-102.5 -54t-70.5 -103.5q-26 -67 -18.5 -133.5t50 -124t107.5 -84.5zM737 782l64 162
q94 -42 165 -115t107 -161.5t40 -188.5t-36 -196q-36 -94 -107.5 -166.5t-160.5 -109t-190.5 -40.5t-198.5 37q-95 41 -164.5 111t-105.5 159l153 66q26 -57 72.5 -104t107.5 -72q128 -52 257 1.5t182 178.5q32 89 20.5 174t-67 158t-138.5 106z" />
    <glyph glyph-name="W.ss01" horiz-adv-x="1558" 
d="M338 868h-174v566h174v-566zM776 721l-430 -721h-182l526 868h187l344 -635v1201h174v-1434h-226z" />
    <glyph glyph-name="S.ss02" horiz-adv-x="1214" 
d="M330 866l-113 -112q-83 81 -112 189t1.5 216.5t114.5 190.5q123 123 297 122.5t297 -124.5q61 -60 91.5 -138.5t27.5 -158.5h-162q0 106 -74 180q-71 73 -178.5 72.5t-181.5 -74.5q-74 -71 -77 -180t69 -183zM618 803v172q137 0 253 -67.5t183.5 -184t67.5 -254.5
q0 -135 -67 -250.5t-183.5 -183.5t-253.5 -68q-102 0 -195.5 38.5t-162.5 107.5l121 123q104 -97 237 -97q137 0 232.5 97t95.5 233q0 140 -95 237t-233 97z" />
    <glyph glyph-name="W.ss02" horiz-adv-x="1558" 
d="M1221 233v1201h174v-1434h-226l-393 721l-430 -721h-182v1434h174v-1147l352 581h187z" />
    <glyph glyph-name="j.ss01" horiz-adv-x="1204" 
d="M868 1434h172v-701h-172v701zM565 -31q-208 0 -340.5 126.5t-132.5 312.5h166q0 -112 86.5 -188.5t220.5 -76.5q136 0 221.5 76.5t85.5 188.5v157h168v-157q0 -185 -134 -312t-341 -127z" />
    <glyph glyph-name="q.ss01" horiz-adv-x="1597" 
d="M799 1305q-125 0 -226 -44.5t-167 -122t-102 -181t-38 -224.5h-174q3 154 53.5 288.5t139.5 235t222 158.5t292 58t291.5 -58t221.5 -158.5t139.5 -235t53.5 -288.5q0 -240 -104 -424h-203q58 87 95.5 198.5t37.5 225.5q-2 121 -38 224.5t-101.5 181t-166.5 122
t-226 44.5zM104 565h183q48 -202 174.5 -313t337.5 -111h698v-172h-698q-277 0 -459 163.5t-236 432.5z" />
    <glyph glyph-name="s.ss01" horiz-adv-x="1206" 
d="M422 797l-66 -154q-105 43 -175 136t-85 201.5t27 219.5q34 88 96.5 151t136.5 91.5t157 28.5t157.5 -28.5t139 -88.5t101.5 -144l-153 -69q-30 65 -81 106.5t-108 51.5t-113 -2.5t-102.5 -54t-70.5 -103.5q-26 -67 -18.5 -133.5t50 -124t107.5 -84.5zM737 782l64 162
q94 -42 165 -115t107 -161.5t40 -188.5t-36 -196q-36 -94 -107.5 -166.5t-160.5 -109t-190.5 -40.5t-198.5 37q-95 41 -164.5 111t-105.5 159l153 66q26 -57 72.5 -104t107.5 -72q128 -52 257 1.5t182 178.5q32 89 20.5 174t-67 158t-138.5 106z" />
    <glyph glyph-name="u.ss01" horiz-adv-x="1275" 
d="M123 1434h172v-701h-172v701zM981 1434h172v-701h-172v701zM637 -31q-223 0 -368.5 127t-145.5 312v157h166v-157q0 -112 98.5 -188.5t249.5 -76.5q152 0 250 76.5t98 188.5v157h168v-157q0 -185 -147 -312t-369 -127z" />
    <glyph glyph-name="s.ss02" horiz-adv-x="1214" 
d="M330 866l-113 -112q-83 81 -112 189t1.5 216.5t114.5 190.5q123 123 297 122.5t297 -124.5q61 -60 91.5 -138.5t27.5 -158.5h-162q0 106 -74 180q-71 73 -178.5 72.5t-181.5 -74.5q-74 -71 -77 -180t69 -183zM618 803v172q137 0 253 -67.5t183.5 -184t67.5 -254.5
q0 -135 -67 -250.5t-183.5 -183.5t-253.5 -68q-102 0 -195.5 38.5t-162.5 107.5l121 123q104 -97 237 -97q137 0 232.5 97t95.5 233q0 140 -95 237t-233 97z" />
    <glyph glyph-name="three.medi" horiz-adv-x="1093" 
d="M549 961q-106 0 -177 -78.5t-71 -188.5h-168q0 182 119 308t297 126q177 0 294.5 -126t117.5 -308q0 -67 -23 -141l-158 57q15 51 15 84q0 111 -70 189t-176 78zM461 481h117q97 0 173.5 -28.5t122 -71.5t75.5 -100.5t41 -109.5t11 -103q0 -117 -63 -218t-167 -159
t-222 -58q-119 0 -224 56t-169 155.5t-64 216.5h168q0 -105 89 -178t200 -73q110 0 198.5 76t88.5 182q0 45 -13.5 86t-42 78t-80.5 59t-122 22h-117v168z" />
    <glyph glyph-name="four.medi" horiz-adv-x="1204" 
d="M827 563v-168h213v-168h-876v869h172v-701h319v168h172zM827 -338h-172v397h172v-397z" />
    <glyph glyph-name="five.medi" horiz-adv-x="1257" 
d="M977 930h-590v-533h-172v701h762v-168zM551 565h98q97 0 175.5 -29t127.5 -74.5t82 -107t46.5 -122t13.5 -123.5q0 -207 -138 -341.5t-335 -134.5q-119 0 -224 56t-169 155.5t-64 216.5h168q0 -105 89 -178t200 -73q128 0 217.5 82t89.5 217q0 123 -70.5 205.5
t-208.5 82.5h-98v168z" />
    <glyph glyph-name="seven.medi" horiz-adv-x="1144" 
d="M164 1098h817v-168h-817v168zM561 -336h-186l401 1100h185z" />
    <glyph glyph-name="nine.medi" horiz-adv-x="1138" 
d="M567 1128q167 0 287.5 -119.5t120.5 -285.5q0 -167 -120.5 -286.5t-287.5 -119.5q-166 0 -284.5 119.5t-118.5 286.5q0 166 118.5 285.5t284.5 119.5zM567 967q-101 0 -171 -70.5t-70 -173.5t70 -173.5t171 -70.5q104 0 175 70.5t71 173.5t-71 173.5t-175 70.5zM319 -336
l340 565h195l-336 -565h-199z" />
    <glyph glyph-name="one.ss01" horiz-adv-x="788" 
d="M625 1434l-324 -533h-178l319 533h183zM442 733h174v-733h-174v733z" />
    <glyph glyph-name="four.ss01" horiz-adv-x="1132" 
d="M668 1434h182l-426 -701h-178zM827 733v-168h213v-168h-213v-397h-172v397h-491v168h491v168h172z" />
    </font>
</defs>
</svg>
