<svg width="48" height="69" viewBox="0 0 48 69" fill="none" xmlns="http://www.w3.org/2000/svg">
<path d="M20.2035 39.805C9.04646 39.805 0.000464665 30.895 0.000464665 19.902C0.00146467 8.911 9.04646 0 20.2035 0C25.5675 0.061 30.6965 2.183 34.4965 5.915L28.5885 11.453C26.5445 8.966 23.4505 7.546 20.2035 7.605C13.4375 7.605 8.19646 13.237 8.19646 19.809C8.19646 26.381 13.4365 32.107 20.2035 32.107V39.805V39.805ZM40.6905 28.915C46.7165 34.835 49.0795 43.472 46.8885 51.573C44.6985 59.675 38.2865 66.009 30.0705 68.191C21.8535 70.373 13.0795 68.07 7.05346 62.151C2.50446 57.748 -0.0395353 51.718 0.000464665 45.437H8.19646C8.17746 51.742 12.0285 57.433 17.9425 59.842C23.8565 62.25 30.6625 60.899 35.1675 56.421C41.1705 50.365 41.1705 40.696 35.1675 34.641L40.6905 28.914V28.915Z" fill="white"/>
</svg>
