<svg width="640" height="69" viewBox="0 0 640 69" fill="none" xmlns="http://www.w3.org/2000/svg">
<path d="M20.1641 39.6623C9.27813 39.6623 0.453125 30.8373 0.453125 19.9503C0.453125 9.06428 9.27813 0.238281 20.1641 0.238281C25.4011 0.298281 30.4081 2.40028 34.1181 6.09728L28.3521 11.5823C26.3561 9.11728 23.3351 7.71128 20.1641 7.77028C13.5631 7.77028 8.44912 13.3483 8.44912 19.8573C8.44912 26.3673 13.5651 32.0383 20.1641 32.0383V39.6623V39.6623ZM40.1571 28.8773C49.2471 37.9403 49.2681 52.6573 40.2051 61.7463C31.1421 70.8363 16.4251 70.8563 7.33512 61.7933C2.89712 57.4343 0.415125 51.4633 0.455125 45.2413H8.45112C8.43412 51.4843 12.1911 57.1183 17.9611 59.5043C23.7291 61.8893 30.3681 60.5523 34.7651 56.1203C40.6231 50.1233 40.6231 40.5463 34.7651 34.5483L40.1571 28.8763V28.8773ZM103.381 2.00528H111.657L87.7601 41.4293H79.2991L63.6781 12.6023V67.0903H55.7741V2.00028H66.0031L83.8551 34.7303L103.381 2.00528ZM111.657 41.4293V67.0923H103.753V41.4293H111.657ZM130.713 2.00528V67.0953H122.809V2.00528H130.713ZM149.678 2.00528V67.0953H141.868V2.00528H149.678ZM174.97 59.3753V67.0923H157.581V59.3743H174.969L174.97 59.3753ZM218.388 9.63028H191.609V26.2733H218.388V33.8053H183.798V2.00528H218.388V9.62928V9.63028ZM191.609 41.4303V59.3743H218.388V67.0923H183.798V41.4293H191.609V41.4303ZM256.226 2.00528V67.0953H248.136V2.00528H256.226ZM271.475 41.3353H264.129V33.8053H271.478C278.116 33.7523 283.469 28.3553 283.469 21.7173C283.469 15.0793 278.116 9.68228 271.478 9.62928H264.132V2.00528H271.478C278.562 1.91628 285.146 5.64528 288.714 11.7653C292.282 17.8863 292.282 25.4533 288.714 31.5743C285.146 37.6943 278.562 41.4243 271.478 41.3343H271.475V41.3353ZM308.013 2.00528V67.0953H300.203V2.00528H308.013ZM333.304 59.3753V67.0923H315.916V59.3743H333.304V59.3753ZM387.043 67.0923L380.628 49.0543H353.198L346.783 67.0923H338.878L348.085 41.4293H377.932L366.959 11.4893L358.776 33.8053H350.874L362.496 2.00528H371.236L394.759 67.0953L387.043 67.0923ZM421.906 39.6623C411.02 39.6623 402.194 30.8373 402.194 19.9503C402.194 9.06428 411.02 0.238281 421.906 0.238281C427.14 0.300281 432.144 2.40128 435.851 6.09728L430.086 11.5823C428.092 9.11928 425.073 7.71228 421.904 7.77028C415.302 7.77028 410.188 13.3483 410.188 19.8573C410.188 26.3673 415.302 32.0383 421.904 32.0383L421.906 39.6623ZM441.898 28.8773C450.988 37.9403 451.008 52.6573 441.944 61.7473C432.881 70.8373 418.164 70.8573 409.074 61.7933C404.636 57.4333 402.154 51.4623 402.194 45.2413H410.191C410.174 51.4843 413.931 57.1183 419.7 59.5043C425.469 61.8893 432.108 60.5523 436.504 56.1203C442.362 50.1233 442.362 40.5463 436.504 34.5483L441.898 28.8763V28.8773ZM503.819 2.00528V9.62928H447.751V2.00528H503.819ZM479.829 17.1613V67.0913H471.927V17.1613H479.829V17.1613ZM519.622 2.00528V67.0953H511.718V2.00528H519.622ZM530.313 33.8053C530.685 15.2083 542.679 0.238281 562.391 0.238281C572.061 0.238281 578.108 4.23728 584.429 10.2823L578.849 15.7683C574.108 10.9333 569.736 7.86428 562.391 7.86428C546.864 7.86428 538.495 19.3013 538.216 33.8063L530.313 33.8053ZM584.613 58.3523C578.292 64.6743 572.154 68.4863 562.391 68.4863C545.19 68.4863 534.031 57.2363 530.871 41.4293H539.146C541.936 53.1453 549.19 60.6763 562.391 60.6763C569.828 60.6763 574.198 57.6103 578.942 52.6803L584.613 58.3523V58.3523ZM612.69 39.6623C601.803 39.6623 592.978 30.8373 592.978 19.9503C592.978 9.06428 601.803 0.238281 612.69 0.238281C617.924 0.299281 622.929 2.40128 626.637 6.09728L620.872 11.5823C618.878 9.11828 615.859 7.71228 612.69 7.77028C606.088 7.77028 600.974 13.3483 600.974 19.8573C600.974 26.3673 606.088 32.0383 612.69 32.0383V39.6623ZM632.681 28.8773C638.561 34.7403 640.867 43.2943 638.729 51.3183C636.591 59.3423 630.335 65.6163 622.318 67.7773C614.3 69.9373 605.738 67.6573 599.858 61.7933C595.42 57.4343 592.938 51.4633 592.978 45.2423H600.974C600.958 51.4853 604.714 57.1193 610.484 59.5043C616.253 61.8893 622.891 60.5523 627.288 56.1203C633.147 50.1233 633.147 40.5453 627.288 34.5483L632.681 28.8763V28.8773Z" fill="#413C2D"/>
</svg>
