<?xml version="1.0" encoding="utf-8"?>
<!-- Generator: Adobe Illustrator 26.5.0, SVG Export Plug-In . SVG Version: 6.00 Build 0)  -->
<svg version="1.1" id="Layer_1" xmlns="http://www.w3.org/2000/svg" xmlns:xlink="http://www.w3.org/1999/xlink" x="0px" y="0px"
	 viewBox="0 0 280 64" style="enable-background:new 0 0 280 64;" xml:space="preserve">
<g>
	<g id="logo-svg">
		<polygon id="Path" points="60.1,63 2.8,63 2.8,1.7 31.5,23 60.1,1.7 		"/>
		<path id="Path_00000093161866960351469360000005414994381045103033_" d="M76.4,63v-6.8c0-4.5,3.7-8.2,8.2-8.2h40.9
			c4.5,0,8.2,3.7,8.2,8.2V63H76.4z"/>
		<polygon id="Path_00000113351887107655743410000004266761543623708034_" points="149.9,63 149.9,1.7 192.2,33.1 192.2,1.7 
			207.2,1.7 207.2,63 164.9,31.5 164.9,63 		"/>
		<path id="Shape" d="M105.1,1.7c-11.3,0-20.5,9.2-20.5,20.5s9.2,20.5,20.5,20.5s20.5-9.2,20.5-20.5S116.4,1.7,105.1,1.7z
			 M105.1,32.9c-5.9,0-10.7-4.8-10.7-10.7s4.8-10.7,10.7-10.7c5.9,0,10.7,4.8,10.7,10.7S111,32.9,105.1,32.9z"/>
		<path id="Path_00000176031836762950037320000012492197759903044489_" d="M265.1,43.2c-2.8,3-6.8,4.8-11.1,4.8
			c-8.5,0-15.5-7-15.5-15.7s6.9-15.7,15.5-15.7c4.4,0,8.3,1.9,11.1,4.8l12.1-9C271.6,5.8,263.3,1.6,254,1.6
			c-16.8,0-30.5,13.7-30.5,30.7S237.1,63,254,63c9.3,0,17.6-4.2,23.2-10.8L265.1,43.2z"/>
	</g>
</g>
</svg>
