<?xml version="1.0" encoding="utf-8"?>
<!-- Generator: Adobe Illustrator 26.5.0, SVG Export Plug-In . SVG Version: 6.00 Build 0)  -->
<svg version="1.1" id="Layer_1" xmlns="http://www.w3.org/2000/svg" xmlns:xlink="http://www.w3.org/1999/xlink" x="0px" y="0px"
	 viewBox="0 0 280 64" style="enable-background:new 0 0 280 64;" xml:space="preserve">
<style type="text/css">
	.st0{fill:#413C2D;}
</style>
<g>
	<g id="logo-svg">
		<polygon id="Path" class="st0" points="59.8,63 2.5,63 2.5,1.7 31.2,23 59.8,1.7 		"/>
		<path id="Path_00000156584050342768774410000000800126489907299753_" class="st0" d="M76.1,63v-6.8c0-4.5,3.7-8.2,8.2-8.2h40.9
			c4.5,0,8.2,3.7,8.2,8.2V63H76.1z"/>
		<polygon id="Path_00000139261161416690775690000001640839514066246304_" class="st0" points="149.6,63 149.6,1.7 191.9,33.1 
			191.9,1.7 206.9,1.7 206.9,63 164.6,31.5 164.6,63 		"/>
		<path id="Shape" class="st0" d="M104.8,1.7c-11.3,0-20.5,9.2-20.5,20.5s9.2,20.5,20.5,20.5s20.5-9.2,20.5-20.5
			S116.1,1.7,104.8,1.7z M104.8,32.9c-5.9,0-10.7-4.8-10.7-10.7s4.8-10.7,10.7-10.7c5.9,0,10.7,4.8,10.7,10.7S110.7,32.9,104.8,32.9
			z"/>
		<path id="Path_00000008846162108651618720000014227460872976172217_" class="st0" d="M264.8,43.2c-2.8,3-6.8,4.8-11.1,4.8
			c-8.5,0-15.5-7-15.5-15.7s6.9-15.7,15.5-15.7c4.4,0,8.3,1.9,11.1,4.8l12.1-9C271.3,5.8,263,1.6,253.7,1.6
			c-16.8,0-30.5,13.7-30.5,30.7S236.8,63,253.7,63c9.3,0,17.6-4.2,23.2-10.8L264.8,43.2z"/>
	</g>
</g>
</svg>
