<?xml version="1.0" encoding="utf-8"?>
<!-- Generator: Adobe Illustrator 26.3.1, SVG Export Plug-In . SVG Version: 6.00 Build 0)  -->
<svg version="1.1" id="Layer_1" xmlns="http://www.w3.org/2000/svg" xmlns:xlink="http://www.w3.org/1999/xlink" x="0px" y="0px"
	 viewBox="0 0 640 69" style="enable-background:new 0 0 640 69;" xml:space="preserve">
<style type="text/css">
	.st0{fill:#FFFFFF;}
</style>
<path class="st0" d="M20.2,39.7C9.3,39.7,0.5,30.8,0.5,20C0.5,9.1,9.3,0.2,20.2,0.2c5.2,0.1,10.2,2.2,14,5.9l-5.8,5.5
	c-2-2.5-5-3.9-8.2-3.8c-6.6,0-11.7,5.6-11.7,12.1c0,6.5,5.1,12.2,11.7,12.2V39.7L20.2,39.7z M40.2,28.9c9.1,9.1,9.1,23.8,0,32.9
	c-9.1,9.1-23.8,9.1-32.9,0c-4.4-4.4-6.9-10.3-6.9-16.6h8c0,6.2,3.7,11.9,9.5,14.3c5.8,2.4,12.4,1,16.8-3.4c5.9-6,5.9-15.6,0-21.6
	L40.2,28.9L40.2,28.9z M103.4,2h8.3L87.8,41.4h-8.5L63.7,12.6v54.5h-7.9V2H66l17.9,32.7L103.4,2z M111.7,41.4v25.7h-7.9V41.4H111.7z
	 M130.7,2v65.1h-7.9V2H130.7z M149.7,2v65.1h-7.8V2H149.7z M175,59.4v7.7h-17.4v-7.7L175,59.4L175,59.4z M218.4,9.6h-26.8v16.6h26.8
	v7.5h-34.6V2h34.6V9.6L218.4,9.6z M191.6,41.4v17.9h26.8v7.7h-34.6V41.4L191.6,41.4L191.6,41.4z M256.2,2v65.1h-8.1V2H256.2z
	 M271.5,41.3h-7.3v-7.5h7.3c6.6-0.1,12-5.5,12-12.1s-5.4-12-12-12.1h-7.3V2h7.3c7.1-0.1,13.7,3.6,17.2,9.8c3.6,6.1,3.6,13.7,0,19.8
	C285.1,37.7,278.6,41.4,271.5,41.3L271.5,41.3L271.5,41.3z M308,2v65.1h-7.8V2H308z M333.3,59.4v7.7h-17.4v-7.7L333.3,59.4
	L333.3,59.4z M387,67.1l-6.4-18h-27.4l-6.4,18h-7.9l9.2-25.7h29.8l-11-29.9l-8.2,22.3h-7.9L362.5,2h8.7l23.5,65.1L387,67.1z
	 M421.9,39.7c-10.9,0-19.7-8.8-19.7-19.7c0-10.9,8.8-19.7,19.7-19.7c5.2,0.1,10.2,2.2,13.9,5.9l-5.8,5.5c-2-2.5-5-3.9-8.2-3.8
	c-6.6,0-11.7,5.6-11.7,12.1c0,6.5,5.1,12.2,11.7,12.2L421.9,39.7z M441.9,28.9c9.1,9.1,9.1,23.8,0,32.9c-9.1,9.1-23.8,9.1-32.9,0
	c-4.4-4.4-6.9-10.3-6.9-16.6h8c0,6.2,3.7,11.9,9.5,14.3c5.8,2.4,12.4,1,16.8-3.4c5.9-6,5.9-15.6,0-21.6L441.9,28.9L441.9,28.9z
	 M503.8,2v7.6h-56.1V2H503.8z M479.8,17.2v49.9h-7.9V17.2H479.8L479.8,17.2z M519.6,2v65.1h-7.9V2H519.6z M530.3,33.8
	c0.4-18.6,12.4-33.6,32.1-33.6c9.7,0,15.7,4,22,10l-5.6,5.5c-4.7-4.8-9.1-7.9-16.5-7.9c-15.5,0-23.9,11.4-24.2,25.9L530.3,33.8z
	 M584.6,58.4c-6.3,6.3-12.5,10.1-22.2,10.1c-17.2,0-28.4-11.2-31.5-27.1h8.3c2.8,11.7,10,19.2,23.2,19.2c7.4,0,11.8-3.1,16.6-8
	L584.6,58.4L584.6,58.4z M612.7,39.7c-10.9,0-19.7-8.8-19.7-19.7c0-10.9,8.8-19.7,19.7-19.7c5.2,0.1,10.2,2.2,13.9,5.9l-5.8,5.5
	c-2-2.5-5-3.9-8.2-3.8c-6.6,0-11.7,5.6-11.7,12.1c0,6.5,5.1,12.2,11.7,12.2V39.7z M632.7,28.9c5.9,5.9,8.2,14.4,6,22.4
	s-8.4,14.3-16.4,16.5c-8,2.2-16.6-0.1-22.5-6c-4.4-4.4-6.9-10.3-6.9-16.6h8c0,6.2,3.7,11.9,9.5,14.3c5.8,2.4,12.4,1,16.8-3.4
	c5.9-6,5.9-15.6,0-21.6L632.7,28.9L632.7,28.9z"/>
</svg>
