<?xml version="1.0" encoding="utf-8"?>
<!-- Generator: Adobe Illustrator 26.3.1, SVG Export Plug-In . SVG Version: 6.00 Build 0)  -->
<svg version="1.1" xmlns="http://www.w3.org/2000/svg" xmlns:xlink="http://www.w3.org/1999/xlink" x="0px" y="0px"
	 viewBox="0 0 1091 705" style="enable-background:new 0 0 1091 705;" xml:space="preserve">
<style type="text/css">
	.st0{fill:#FFFFFF;}
	.st1{fill:#1D1D1B;}
	.st2{font-family:'Montserrat-Bold';}
	.st3{font-size:48px;}
	.st4{font-size:48.0001px;}
	.st5{fill:none;stroke:#FFFFFF;stroke-width:9.703;stroke-miterlimit:10;}
	.st6{fill:none;}
	.st7{fill:#6F6F6E;}
</style>
<g id="Layer_2">
	<g>
		<g>
			<path class="st0" d="M1087,4v697H4V4H1087 M1091,0H0v705h1091V0L1091,0z"/>
		</g>
		<g>
			<path class="st0" d="M762.8,652.4c0-5.8,0.6-10.4,1.8-13.9c1.2-3.5,2.9-6.2,5.3-8.1c2.3-1.9,5.3-2.9,8.8-2.9
				c2.6,0,4.9,0.5,6.9,1.6c2,1.1,3.6,2.6,4.9,4.5c1.3,2,2.3,4.4,3,7.2c0.7,2.8,1.1,6.7,1.1,11.5c0,5.7-0.6,10.3-1.8,13.8
				c-1.2,3.5-2.9,6.2-5.3,8.1c-2.3,1.9-5.3,2.9-8.8,2.9c-4.7,0-8.4-1.7-11.1-5C764.4,668.1,762.8,661.5,762.8,652.4z M769,652.4
				c0,8,0.9,13.3,2.8,16c1.9,2.6,4.2,4,6.9,4s5.1-1.3,6.9-4s2.8-8,2.8-15.9c0-8-0.9-13.3-2.8-16c-1.9-2.6-4.2-4-7-4
				c-2.7,0-4.9,1.2-6.6,3.5C770,638.9,769,644.4,769,652.4z"/>
			<path class="st0" d="M800.7,652.4c0-5.8,0.6-10.4,1.8-13.9c1.2-3.5,2.9-6.2,5.3-8.1c2.3-1.9,5.3-2.9,8.8-2.9
				c2.6,0,4.9,0.5,6.9,1.6c2,1.1,3.6,2.6,4.9,4.5c1.3,2,2.3,4.4,3,7.2c0.7,2.8,1.1,6.7,1.1,11.5c0,5.7-0.6,10.3-1.8,13.8
				c-1.2,3.5-2.9,6.2-5.3,8.1c-2.3,1.9-5.3,2.9-8.8,2.9c-4.7,0-8.4-1.7-11.1-5C802.3,668.1,800.7,661.5,800.7,652.4z M806.8,652.4
				c0,8,0.9,13.3,2.8,16c1.9,2.6,4.2,4,6.9,4s5.1-1.3,6.9-4s2.8-8,2.8-15.9c0-8-0.9-13.3-2.8-16c-1.9-2.6-4.2-4-7-4
				c-2.7,0-4.9,1.2-6.6,3.5C807.8,638.9,806.8,644.4,806.8,652.4z"/>
			<path class="st0" d="M868.2,670.6v5.7h-32.2c0-1.4,0.2-2.8,0.7-4.2c0.8-2.2,2.1-4.3,3.9-6.5s4.4-4.6,7.8-7.4
				c5.3-4.3,8.9-7.8,10.7-10.3c1.9-2.5,2.8-4.9,2.8-7.2c0-2.4-0.8-4.4-2.5-6s-3.9-2.4-6.6-2.4c-2.9,0-5.2,0.9-6.9,2.6
				s-2.6,4.1-2.6,7.2l-6.1-0.6c0.4-4.6,2-8.1,4.7-10.5c2.7-2.4,6.4-3.6,11.1-3.6c4.7,0,8.4,1.3,11.1,3.9s4.1,5.8,4.1,9.6
				c0,1.9-0.4,3.9-1.2,5.7c-0.8,1.9-2.1,3.9-4,5.9c-1.8,2.1-4.9,4.9-9.2,8.6c-3.6,3-5.9,5.1-6.9,6.1c-1,1.1-1.9,2.2-2.5,3.2H868.2z"
				/>
			<path class="st0" d="M904.1,639.6l-5.9,0.5c-0.5-2.3-1.3-4.1-2.3-5.1c-1.6-1.7-3.6-2.6-6-2.6c-1.9,0-3.6,0.5-5,1.6
				c-1.9,1.4-3.4,3.4-4.4,6c-1.1,2.6-1.6,6.4-1.7,11.3c1.4-2.2,3.2-3.8,5.3-4.9c2.1-1.1,4.3-1.6,6.5-1.6c4,0,7.4,1.5,10.2,4.4
				c2.8,2.9,4.2,6.7,4.2,11.4c0,3.1-0.7,5.9-2,8.5c-1.3,2.6-3.1,4.6-5.4,6c-2.3,1.4-4.9,2.1-7.8,2.1c-5,0-9-1.8-12.2-5.5
				c-3.1-3.7-4.7-9.7-4.7-18.1c0-9.4,1.7-16.2,5.2-20.5c3-3.7,7.1-5.6,12.3-5.6c3.8,0,7,1.1,9.4,3.2
				C902.1,632.9,903.6,635.8,904.1,639.6z M879.7,660.6c0,2.1,0.4,4,1.3,5.9c0.9,1.9,2.1,3.3,3.7,4.3c1.6,1,3.2,1.5,4.9,1.5
				c2.5,0,4.7-1,6.5-3.1c1.8-2,2.7-4.8,2.7-8.3c0-3.4-0.9-6-2.7-8c-1.8-1.9-4.1-2.9-6.8-2.9c-2.7,0-5,1-6.9,2.9
				C880.6,654.9,879.7,657.5,879.7,660.6z"/>
		</g>
		<text transform="matrix(0.7811 -0.6244 0.6244 0.7811 134.8403 149.4626)" class="st1 st2 st3"> </text>
		<text transform="matrix(0.8178 -0.5754 0.5754 0.8178 146.3327 140.3041)" class="st1 st2 st3"> </text>
		<text transform="matrix(0.8436 -0.537 0.537 0.8436 158.363 131.879)" class="st1 st2 st3"> </text>
		<text transform="matrix(0.8681 -0.4964 0.4964 0.8681 170.8435 124.0007)" class="st1 st2 st4"> </text>
		<text transform="matrix(0.8883 -0.4593 0.4593 0.8883 183.5756 116.7549)" class="st1 st2 st3"> </text>
		<text transform="matrix(0.9937 -0.1122 0.1122 0.9937 272.1739 86.6788)" class="st1 st2 st3"> </text>
		<g>
			<path class="st0" d="M1040.3,595.6H618.8V48.8h421.5V595.6z M1051.7,37.4H607.4V607h444.3V37.4z"/>
			<g>
				<rect x="618.8" y="198.2" class="st0" width="34.2" height="6"/>
				<rect x="618.8" y="293.6" class="st0" width="34.2" height="6"/>
				<rect x="618.8" y="217.3" class="st0" width="17.1" height="6"/>
				<rect x="618.8" y="236.3" class="st0" width="17.1" height="6"/>
				<rect x="618.8" y="255.4" class="st0" width="17.1" height="6"/>
				<rect x="618.8" y="274.5" class="st0" width="17.1" height="6"/>
				<rect x="618.8" y="389" class="st0" width="32.8" height="6"/>
				<rect x="618.8" y="312.7" class="st0" width="17.1" height="6"/>
				<rect x="618.8" y="331.7" class="st0" width="17.1" height="6"/>
				<rect x="618.8" y="350.8" class="st0" width="17.1" height="6"/>
				<rect x="618.8" y="369.9" class="st0" width="17.1" height="6"/>
				<rect x="1006.1" y="389" class="st0" width="34.2" height="6"/>
				<rect x="1006.1" y="293.6" class="st0" width="34.2" height="6"/>
				<rect x="1023.2" y="369.9" class="st0" width="17.1" height="6"/>
				<rect x="1023.2" y="350.8" class="st0" width="17.1" height="6"/>
				<rect x="1023.2" y="331.7" class="st0" width="17.1" height="6"/>
				<rect x="1023.2" y="312.7" class="st0" width="17.1" height="6"/>
				<rect x="1007.5" y="198.2" class="st0" width="32.8" height="6"/>
				<rect x="1023.2" y="274.5" class="st0" width="17.1" height="6"/>
				<rect x="1023.2" y="255.4" class="st0" width="17.1" height="6"/>
				<rect x="1023.2" y="236.3" class="st0" width="17.1" height="6"/>
				<rect x="1023.2" y="217.3" class="st0" width="17.1" height="6"/>
			</g>
			<g>
				<polygon class="st0" points="681.9,529.9 678,529.9 667.9,506.1 667.7,506.1 665.6,534.3 660.8,534.3 663.5,500 670,500 
					680,524.5 690.2,500 696.4,500 699.1,534.3 694.4,534.3 692.4,505.8 692.2,505.8 				"/>
				<path class="st0" d="M729.5,534.3l-3.7-10.7h-13.4l-3.7,10.7h-5l12.3-34.3h6.1l12.3,34.3H729.5z M713.8,519.5h10.5l-5.2-15.1
					H719L713.8,519.5z"/>
				<polygon class="st0" points="760.4,527 760.6,527 760.6,500 765.3,500 765.3,534.3 759.9,534.3 745.1,507.1 744.9,507.1 
					744.9,534.3 740.2,534.3 740.2,500 746,500 				"/>
				<path class="st0" d="M796.8,534.3l-3.7-10.7h-13.4l-3.7,10.7h-5l12.3-34.3h6.1l12.3,34.3H796.8z M781.1,519.5h10.5l-5.2-15.1
					h-0.2L781.1,519.5z"/>
				<path class="st0" d="M820.7,534.8c-14-0.4-14.3-8.6-14.3-13.3v-8.6c0-4.7,0.3-13.3,15-13.3c3.9,0,7.5,0.7,9.8,1.1v3.9
					c-2-0.3-5.8-0.9-9.8-0.9c-10.1,0-10.3,5.3-10.3,9.2v8.6c0,3.8,0.1,8.9,9.6,9.2c2.7,0,6.4-0.7,8.4-1.7v-7.6h-7.2v-4.1h11.4v14.2
					C830.1,533.3,825.9,534.8,820.7,534.8"/>
				<polygon class="st0" points="841,534.3 841,500 862,500 862,504.1 845.7,504.1 845.7,515.3 860.3,515.3 860.3,519.4 
					845.7,519.4 845.7,530.2 862.5,530.2 862.5,534.3 				"/>
				<polygon class="st0" points="889.8,529.9 885.9,529.9 875.8,506.1 875.6,506.1 873.5,534.3 868.7,534.3 871.4,500 877.9,500 
					887.9,524.5 898.1,500 904.3,500 907,534.3 902.3,534.3 900.3,505.8 900.1,505.8 				"/>
				<polygon class="st0" points="914.9,534.3 914.9,500 936,500 936,504.1 919.7,504.1 919.7,515.3 934.2,515.3 934.2,519.4 
					919.7,519.4 919.7,530.2 936.4,530.2 936.4,534.3 				"/>
				<polygon class="st0" points="964,527 964.2,527 964.2,500 968.9,500 968.9,534.3 963.5,534.3 948.7,507.1 948.5,507.1 
					948.5,534.3 943.7,534.3 943.7,500 949.6,500 				"/>
				<polygon class="st0" points="985.2,504.1 974.8,504.1 974.8,500 1000.3,500 1000.3,504.1 989.9,504.1 989.9,534.3 985.2,534.3 
									"/>
				<path class="st0" d="M735.9,549.5c-4.8,0-7.7,0.8-7.7,4.9c0,2.5,1.6,3.6,4.9,5.4l6.3,3.2c4.1,2,6.1,4.2,6.1,9.2
					c0,6.9-4.8,8.4-12.8,8.4c-1.7,0-6.4-0.4-10-1.4v-4.3c3.4,1.1,8.2,1.5,10,1.5c5,0,8.1-0.8,8.1-4.3c0-2.9-1.2-4-3.6-5.2l-6.7-3.4
					c-4.6-2.4-7-4.4-7-9.3c0-7.4,4.3-8.8,12.4-8.8c1.6,0,5.6,0.2,8.5,1.1v4.2C742.2,549.9,737.7,549.5,735.9,549.5"/>
				<polygon class="st0" points="763.9,564.6 764,564.6 773.7,545.8 779.2,545.8 766.2,569.4 766.2,580.1 761.5,580.1 761.5,569.3 
					748.6,545.8 754.1,545.8 				"/>
				<path class="st0" d="M795.1,549.5c-4.8,0-7.7,0.8-7.7,4.9c0,2.5,1.6,3.6,4.9,5.4l6.3,3.2c4.1,2,6.1,4.2,6.1,9.2
					c0,6.9-4.8,8.4-12.8,8.4c-1.7,0-6.4-0.4-10-1.4v-4.3c3.4,1.1,8.2,1.5,10,1.5c5,0,8.1-0.8,8.1-4.3c0-2.9-1.2-4-3.6-5.2l-6.7-3.4
					c-4.6-2.4-7-4.4-7-9.3c0-7.4,4.3-8.8,12.4-8.8c1.6,0,5.6,0.2,8.5,1.1v4.2C801.4,549.9,797,549.5,795.1,549.5"/>
				<polygon class="st0" points="819.3,549.9 808.9,549.9 808.9,545.8 834.4,545.8 834.4,549.9 824,549.9 824,580.1 819.3,580.1 
									"/>
				<polygon class="st0" points="840.3,580.1 840.3,545.8 861.3,545.8 861.3,549.9 845,549.9 845,561.1 859.6,561.1 859.6,565.2 
					845,565.2 845,576 861.8,576 861.8,580.1 				"/>
				<polygon class="st0" points="889.1,575.7 885.2,575.7 875.1,551.9 874.9,551.9 872.8,580.1 868,580.1 870.7,545.8 877.2,545.8 
					887.2,570.3 897.4,545.8 903.6,545.8 906.3,580.1 901.6,580.1 899.6,551.6 899.4,551.6 				"/>
				<path class="st0" d="M925.7,549.5c-4.8,0-7.7,0.8-7.7,4.9c0,2.5,1.6,3.6,4.9,5.4l6.3,3.2c4.1,2,6.1,4.2,6.1,9.2
					c0,6.9-4.8,8.4-12.8,8.4c-1.7,0-6.4-0.4-10-1.4v-4.3c3.4,1.1,8.2,1.5,10,1.5c5,0,8.1-0.8,8.1-4.3c0-2.9-1.2-4-3.6-5.2l-6.7-3.4
					c-4.6-2.4-7-4.4-7-9.3c0-7.4,4.3-8.8,12.4-8.8c1.6,0,5.6,0.2,8.5,1.1v4.2C932,549.9,927.5,549.5,925.7,549.5"/>
			</g>
			<g>
				<path class="st0" d="M706.3,474.7c8.9,0,14-3.7,14-15.1v-34.7h14.6v33.5c0,19.3-8.9,27.1-29,27.1c-20.1,0-29-7.8-29-27.1v-33.5
					h15.3v34.7C692.3,471,697.4,474.7,706.3,474.7"/>
				<path class="st0" d="M777.1,424.9v24c0,0.7,0.3,1,1,1h3.8c0.9,0,1.4-0.2,1.9-0.8l19.2-24.2h18l-22.2,27.2
					c-0.4,0.5-0.5,0.6-0.5,1.1v1.1c0,0.5,0.1,0.7,0.5,1.1l25.7,29.3h-20.6l-20.1-24.9c-0.4-0.5-0.7-0.7-1.6-0.7h-4c-0.7,0-1,0.3-1,1
					v24.6l-15.3,0v-59.7H777.1z"/>
				<path class="st0" d="M892.7,484.6L888,472c-0.4-0.9-0.8-1-1.7-1c-2.1,0-8,0-13.8,0c-5.4,0-10.5,0-12.6,0c-0.9,0-1.4,0.1-1.7,1
					l-4.8,12.7h-15.7l24.8-59.7h21.7l24.8,59.7H892.7z M882.7,460c0.4,0,0.7-0.4,0.6-0.8l-8.6-22.4c-0.3-0.7-0.5-0.8-1.1-0.8h-0.9
					c-0.6,0-0.9,0.1-1.1,0.8l-8.6,22.4c-0.2,0.4,0.1,0.8,0.6,0.8L882.7,460z"/>
				<path class="st0" d="M977.1,426.9c1.2,0.4,1.6,0.5,1.6,0.5l0,3.7l0,5.3v1.8c0,0-2-0.4-2.4-0.5c-3.7-0.8-11.6-2.5-20.6-2.5
					c-7.1,0-13.1,1-13.1,6c0,4.8,4.2,5.4,14.6,6.9c15.1,2.2,24.8,4.7,24.8,18.8c0,15.4-15.4,18.6-29.9,18.6c-10.2,0-21.6-2-23.8-2.8
					c-1.2-0.4-1.3-0.4-1.3-0.4l0-4.4l0-5.7l0-1.5c0,0,1.7,0.4,2,0.5c7.9,1.9,16,3.3,24.6,3.3c4.4,0,12.7-0.3,12.7-6.3
					c0-4.4-1.9-5.6-14.2-7.4c-14.6-2.1-25.1-5.3-25.1-18.5c0-15.1,14.2-18,28.9-18C965.6,424.2,975.1,426.1,977.1,426.9"/>
			</g>
			<g>
				<path class="st0" d="M802.3,317.3c-12.2-9.7-25.5-18-39.7-24.6v8.5v7.2v1.3v5.7v8c17,11.7,31.9,26.2,44.1,42.8v0.1
					c11.1-20.5,25.3-40.4,42.1-58.5c13.3-14.3,27.9-27.1,43.4-38v-1.5V260v-4v-6.1v-5.8C857.4,261.6,826.8,287.5,802.3,317.3"/>
				<path class="st0" d="M829.3,198.1c54.2,0,98.3,44.1,98.3,98.3c0,54.2-44.1,98.3-98.3,98.3c-54.2,0-98.3-44.1-98.3-98.3
					C731,242.2,775.1,198.1,829.3,198.1 M829.3,186.7c-60.6,0-109.6,49.1-109.6,109.6c0,60.6,49.1,109.7,109.6,109.7
					c60.6,0,109.6-49.1,109.6-109.7C939,235.8,889.9,186.7,829.3,186.7"/>
			</g>
			<g>
				<path class="st0" d="M770.2,141.3c0.2-0.2,0.3-0.4,0.5-0.6c0.1-0.2,0.3-0.4,0.4-0.7c0.1-0.2,0.2-0.5,0.2-0.7
					c0-0.2,0.1-0.5,0.1-0.7c0-0.3,0-0.5-0.1-0.7c-0.1-0.2-0.1-0.5-0.2-0.7c-0.1-0.2-0.2-0.5-0.4-0.7c-0.1-0.2-0.3-0.4-0.5-0.6
					c-0.2-0.2-0.4-0.3-0.6-0.5c-0.2-0.1-0.4-0.3-0.7-0.4c-0.2-0.1-0.5-0.2-0.7-0.2c-0.5-0.1-1-0.1-1.5,0c-0.2,0-0.5,0.1-0.7,0.2
					c-0.2,0.1-0.5,0.2-0.7,0.4c-0.2,0.1-0.4,0.3-0.6,0.5c-0.2,0.2-0.3,0.4-0.5,0.6c-0.1,0.2-0.3,0.4-0.4,0.7
					c-0.1,0.2-0.2,0.5-0.2,0.7c0,0.2-0.1,0.5-0.1,0.7c0,0.2,0,0.5,0.1,0.7c0,0.2,0.1,0.5,0.2,0.7c0.1,0.2,0.2,0.5,0.4,0.7
					c0.1,0.2,0.3,0.4,0.5,0.6c0.2,0.2,0.4,0.3,0.6,0.5c0.2,0.1,0.4,0.3,0.7,0.4c0.2,0.1,0.5,0.2,0.7,0.2c0.2,0,0.5,0.1,0.7,0.1
					C768.5,142.4,769.5,142,770.2,141.3"/>
				<path class="st0" d="M766,111.5c0.6,0.4,1.3,0.5,1.9,0.5c1.3,0,2.6-0.7,3.3-1.9c1.1-1.8,0.4-4.2-1.4-5.2
					c-1.8-1.1-4.2-0.4-5.2,1.4C763.5,108.1,764.2,110.5,766,111.5"/>
				<path class="st0" d="M774.7,104c0.9,0,1.7-0.3,2.4-0.9c1.6-1.3,1.8-3.7,0.5-5.4c-1.3-1.6-3.7-1.9-5.4-0.5
					c-1.6,1.3-1.8,3.7-0.5,5.4C772.5,103.5,773.6,104,774.7,104"/>
				<path class="st0" d="M783.8,98.9c0.4,0,0.8-0.1,1.3-0.2c2-0.7,3-2.9,2.3-4.9c-0.7-2-2.9-3-4.9-2.3c-2,0.7-3,2.9-2.3,4.9
					C780.8,97.9,782.2,98.9,783.8,98.9"/>
				<path class="st0" d="M794.2,97.1c2.1,0,3.8-1.7,3.8-3.8c0-2.1-1.7-3.8-3.8-3.8c-2.1,0-3.8,1.7-3.8,3.8
					C790.4,95.4,792.1,97.1,794.2,97.1"/>
				<path class="st0" d="M803.2,98.7c0.4,0.2,0.9,0.2,1.3,0.2c1.5,0,3-0.9,3.6-2.5c0.7-2-0.3-4.2-2.2-4.9c-2-0.7-4.2,0.3-4.9,2.2
					C800.2,95.8,801.2,98,803.2,98.7"/>
				<path class="st0" d="M763.5,121.8c0.2,0,0.5,0.1,0.7,0.1c1.8,0,3.4-1.3,3.7-3.1c0.4-2.1-0.9-4.1-3-4.5c-2.1-0.4-4.1,1-4.5,3
					C760.1,119.4,761.4,121.4,763.5,121.8"/>
				<path class="st0" d="M764.8,132.3c2.1-0.4,3.5-2.3,3.1-4.4v0c-0.4-2.1-2.3-3.5-4.4-3.1c-2.1,0.4-3.5,2.3-3.1,4.4
					c0.3,1.9,1.9,3.2,3.8,3.2C764.4,132.4,764.6,132.4,764.8,132.3"/>
				<path class="st0" d="M812.3,101.9c0.2,0.1,0.4,0.3,0.7,0.4c0.2,0.1,0.5,0.2,0.7,0.2c0.2,0.1,0.5,0.1,0.7,0.1c1,0,2-0.4,2.7-1.1
					c0.7-0.7,1.1-1.7,1.1-2.7c0-0.2,0-0.5-0.1-0.7c0-0.2-0.1-0.5-0.2-0.7c-0.1-0.2-0.2-0.4-0.4-0.7c-0.1-0.2-0.3-0.4-0.5-0.6
					c-0.9-0.9-2.2-1.3-3.4-1c-0.2,0-0.5,0.1-0.7,0.2c-0.2,0.1-0.5,0.2-0.7,0.4c-0.2,0.1-0.4,0.3-0.6,0.5c-0.2,0.2-0.3,0.4-0.5,0.6
					c-0.1,0.2-0.3,0.4-0.3,0.7c-0.1,0.2-0.2,0.5-0.2,0.7c-0.1,0.2-0.1,0.5-0.1,0.7c0,1,0.4,2,1.1,2.7
					C811.9,101.6,812.1,101.7,812.3,101.9"/>
				<path class="st0" d="M895.4,137.1c-0.1-0.2-0.2-0.5-0.4-0.7c-0.1-0.2-0.3-0.4-0.5-0.6c-0.2-0.2-0.4-0.3-0.6-0.5
					c-0.2-0.1-0.4-0.3-0.7-0.4c-0.2-0.1-0.5-0.2-0.7-0.2c-0.5-0.1-1-0.1-1.5,0c-0.2,0-0.5,0.1-0.7,0.2c-0.2,0.1-0.5,0.2-0.7,0.4
					c-0.2,0.1-0.4,0.3-0.6,0.5c-0.2,0.2-0.3,0.4-0.5,0.6c-0.1,0.2-0.3,0.4-0.4,0.7c-0.1,0.2-0.2,0.5-0.2,0.7
					c-0.1,0.3-0.1,0.5-0.1,0.7c0,0.2,0,0.5,0.1,0.7c0,0.2,0.1,0.5,0.2,0.7c0.1,0.2,0.2,0.4,0.4,0.7c0.1,0.2,0.3,0.4,0.5,0.6
					c0.7,0.7,1.7,1.1,2.7,1.1c0.2,0,0.5,0,0.7-0.1c0.2,0,0.5-0.1,0.7-0.2c0.2-0.1,0.4-0.2,0.7-0.4c0.2-0.1,0.4-0.3,0.6-0.5
					c0.2-0.2,0.3-0.4,0.5-0.6c0.1-0.2,0.3-0.4,0.4-0.7c0.1-0.2,0.2-0.5,0.2-0.7c0-0.2,0.1-0.5,0.1-0.7c0-0.2,0-0.5-0.1-0.7
					C895.6,137.6,895.5,137.3,895.4,137.1"/>
				<path class="st0" d="M874.3,98.6c0.4,0.1,0.8,0.2,1.3,0.2c1.6,0,3.1-1,3.6-2.6c0.7-2-0.4-4.2-2.3-4.9c-2-0.7-4.2,0.4-4.9,2.3
					C871.3,95.8,872.3,97.9,874.3,98.6"/>
				<path class="st0" d="M882.3,103.1c0.7,0.6,1.6,0.9,2.4,0.9c1.1,0,2.2-0.5,2.9-1.4c1.3-1.6,1.1-4-0.5-5.4c-1.6-1.3-4-1.1-5.4,0.5
					C880.5,99.4,880.7,101.8,882.3,103.1"/>
				<path class="st0" d="M888.2,110.1c0.7,1.2,2,1.9,3.3,1.9c0.6,0,1.3-0.2,1.9-0.5c1.8-1.1,2.4-3.4,1.4-5.2
					c-1.1-1.8-3.4-2.4-5.2-1.4C887.8,106,887.1,108.3,888.2,110.1"/>
				<path class="st0" d="M865.2,97.1c2.1,0,3.8-1.7,3.8-3.8c0-2.1-1.7-3.8-3.8-3.8h0c-2.1,0-3.8,1.7-3.8,3.8
					C861.4,95.4,863.1,97.1,865.2,97.1"/>
				<path class="st0" d="M894.4,114.3c-2.1,0.4-3.4,2.4-3,4.5c0.3,1.8,1.9,3.1,3.7,3.1c0.2,0,0.5,0,0.7-0.1c2.1-0.4,3.4-2.4,3-4.5
					C898.5,115.3,896.5,113.9,894.4,114.3"/>
				<path class="st0" d="M895.8,124.8c-2.1-0.4-4,1-4.4,3.1c-0.4,2.1,1,4,3.1,4.4c0.2,0,0.4,0.1,0.6,0.1c1.8,0,3.4-1.3,3.8-3.2
					C899.3,127.1,897.9,125.2,895.8,124.8"/>
				<path class="st0" d="M854.9,99c0.5,0,0.9-0.1,1.3-0.2c2-0.7,3-2.9,2.2-4.9c-0.7-2-2.9-3-4.9-2.2c-2,0.7-3,2.9-2.2,4.9
					C851.9,98,853.4,99,854.9,99"/>
				<path class="st0" d="M841.4,100.1c0.1,0.2,0.2,0.5,0.3,0.7c0.1,0.2,0.3,0.4,0.5,0.6c0.2,0.2,0.4,0.3,0.6,0.5
					c0.2,0.1,0.4,0.3,0.7,0.4c0.2,0.1,0.5,0.2,0.7,0.2c0.2,0.1,0.5,0.1,0.7,0.1c1,0,2-0.4,2.7-1.1c0.2-0.2,0.3-0.4,0.5-0.6
					c0.1-0.2,0.3-0.4,0.3-0.7c0.1-0.2,0.2-0.5,0.2-0.7c0-0.2,0.1-0.5,0.1-0.7c0-1-0.4-2-1.1-2.7c-0.9-0.9-2.2-1.3-3.4-1
					c-0.2,0-0.5,0.1-0.7,0.2c-0.2,0.1-0.4,0.2-0.7,0.4c-0.2,0.1-0.4,0.3-0.6,0.5c-0.7,0.7-1.1,1.7-1.1,2.7c0,0.2,0,0.5,0.1,0.7
					C841.3,99.7,841.4,99.9,841.4,100.1"/>
				<path class="st0" d="M886,140.9c-0.6-1.6-0.6-3.4,0.1-5l1.2-2.9c2.5-5.9,2.6-12.4,0.3-18.3c-2.4-5.9-6.9-10.6-12.7-13.2
					c-5.8-2.5-12.3-2.6-18.3-0.3l-0.3,0.1l-0.1,0c-5.9,2.6-12,4.3-18.4,5.1c-0.3-2.7-1.9-5.1-4.2-6.4c3.7-1.6,6.4-5.3,6.4-9.6
					c0-2.6-0.9-4.9-2.5-6.8h0l-2.4-2.8c-2-2.4-3.3-5.3-3.7-8.6c3.2,0.4,6.2,1.7,8.6,3.7V65c-2.4,2-5.3,3.3-8.6,3.7
					c0.4-3.3,1.7-6.2,3.7-8.6h-5.5h-5.5c2,2.4,3.3,5.3,3.7,8.6c-3.2-0.4-6.2-1.7-8.6-3.7v11.1c2.4-2,5.3-3.3,8.6-3.7
					c-0.4,3.2-1.7,6.2-3.7,8.6l-2.4,2.8h0c-1.6,1.8-2.5,4.2-2.5,6.8c0,4.3,2.6,8,6.4,9.6c-2.3,1.3-3.9,3.6-4.2,6.4
					c-6.3-0.8-12.5-2.5-18.4-5.1l-0.3-0.1c-5.9-2.3-12.4-2.2-18.3,0.3c-5.9,2.5-10.4,7.2-12.7,13.2c-2.3,5.9-2.2,12.4,0.3,18.3
					l1.2,2.9c0.7,1.6,0.8,3.4,0.1,5c-0.6,1.6-1.9,2.9-3.6,3.6l-2.8,1.2l10.5,26.4l4.8,12.3c14.8-6.3,30.8-9.6,47.4-9.6
					c16.6,0,32.6,3.3,47.4,9.6l4.8-12.3l10.5-26.4l-2.8-1.2C888,143.8,886.7,142.5,886,140.9 M829.7,70.5L829.7,70.5L829.7,70.5
					L829.7,70.5L829.7,70.5L829.7,70.5L829.7,70.5z M812.9,160.4c-7.9,0-13.4-5.7-13.2-11.9c0.1-1.5,1.3-2.7,2.9-2.7
					c1.6,0,2.9,1.3,2.9,2.9c0,0.7-0.3,1.4-0.7,1.9c2.6-0.4,4.5-2.6,4.5-5.3c0-2.9-2.4-5.3-5.3-5.3c-2.7,0-4.9,2-5.3,4.5h-0.1
					c0.2-1.7,0.1-3.8-0.4-6c-1.1-5-3.8-8.6-6-8.1l0,0c-2.2,0.5-3,5-1.9,9.9c0.5,2.2,1.3,4.1,2.2,5.6l-0.1,0c-1.5-2.1-4.3-3-6.7-1.8
					c-2.7,1.3-3.8,4.5-2.5,7.1c1.1,2.4,3.9,3.6,6.4,2.8c-0.6-0.3-1.1-0.7-1.5-1.4c-0.7-1.4-0.1-3.1,1.4-3.8c1.4-0.7,3.1-0.1,3.8,1.2
					c2.8,5.5,0.3,13-6.8,16.4c-1.3,0.6-2.6,1-4,1.2l-7.5-18.8c1.9-1.4,3.4-3.3,4.3-5.5c1.3-3.2,1.2-6.6-0.2-9.8l-1.2-2.9
					c-1.9-4.3-2-9.1-0.2-13.5c1.7-4.4,5.1-7.8,9.4-9.7c4.3-1.9,9-1.9,13.4-0.3c6.7,3,13.8,4.9,21,5.7v16.4v5.8
					c2.8,2.1,4.8,5.2,5.5,8.8c-5.7-0.8-10.7-4-13.8-8.6v22.2c3.1-4.6,8.1-7.8,13.9-8.6C825.7,155.3,819.9,160.4,812.9,160.4
					 M877,167.6c-1.3-0.2-2.7-0.6-4-1.2c-7.1-3.4-9.6-10.9-6.8-16.4c0.7-1.3,2.4-1.9,3.8-1.2c1.4,0.7,2,2.4,1.4,3.8
					c-0.3,0.7-0.8,1.1-1.5,1.4c2.5,0.7,5.2-0.4,6.4-2.8c1.3-2.7,0.1-5.8-2.5-7.1c-2.4-1.1-5.2-0.3-6.7,1.8l-0.1,0
					c0.9-1.4,1.7-3.4,2.2-5.6c1.1-5,0.2-9.4-1.9-9.9v0c-2.2-0.5-4.9,3.1-6,8.1c-0.5,2.2-0.6,4.3-0.4,6h-0.1
					c-0.4-2.6-2.6-4.5-5.3-4.5c-2.9,0-5.3,2.4-5.3,5.3c0,2.7,2,4.9,4.5,5.3c-0.4-0.5-0.7-1.2-0.7-1.9c0-1.6,1.3-2.9,2.9-2.9
					c1.5,0,2.8,1.2,2.9,2.7c0.2,6.2-5.3,11.9-13.2,11.9c-7,0-12.9-5.1-14-11.8c5.8,0.8,10.7,4,13.8,8.6V135
					c-3.1,4.6-8.1,7.8-13.8,8.6c0.7-3.6,2.7-6.7,5.5-8.8v-5.8v-16.4c7.2-0.8,14.3-2.7,21-5.7c4.4-1.7,9.1-1.6,13.4,0.3
					c4.3,1.9,7.7,5.3,9.4,9.7c1.7,4.4,1.7,9.2-0.2,13.5l-1.2,2.9c-1.4,3.2-1.4,6.7-0.2,9.8c0.9,2.2,2.4,4.1,4.3,5.5L877,167.6z"/>
			</g>
		</g>
		<g>
			<g>
				<path class="st0" d="M395.2,119.2c3.9,0,7.2,3.2,7.2,7.2c0,3.9-3.2,7.2-7.2,7.2c-3.9,0-7.2-3.2-7.2-7.2
					C388.1,122.5,391.3,119.2,395.2,119.2 M395.2,132.5c3.3,0,5.8-2.7,5.8-6.1c0-3.4-2.5-6.1-5.8-6.1c-3.3,0-5.8,2.7-5.8,6.1
					C389.4,129.8,391.9,132.5,395.2,132.5 M392.5,122.2h3.2c1.9,0,2.9,0.8,2.9,2.4c0,1.3-0.9,2.3-2.2,2.3l2.4,3.7h-1.4l-2.3-3.7
					h-1.1v3.7h-1.4V122.2z M393.9,125.8h1.6c1.1,0,1.7-0.2,1.7-1.3c0-1-0.9-1.2-1.7-1.2h-1.6V125.8z"/>
				<path class="st0" d="M347.7,116.7c-26.2,2.8-32.3-12.9-32.3-12.9s-8.4,14.6-33.9,8c0,0-16.6,50.5,1.3,65.7
					c17.9,15.2,25.5,22.5,25.5,22.5s8.6-6.1,28.5-18.5C356.7,169.1,347.7,116.7,347.7,116.7 M287.6,172.4c-1.1-1-2.1-2.2-3-3.9
					c-1.3-2.5-2.2-5.9-2.6-9.8c-0.4-3.9-0.4-8.3-0.1-12.7c0.6-8,2.2-16.2,3.7-22.2c0.4-1.6,0.8-3.1,1.1-4.3c1.5,0.2,2.9,0.4,4.3,0.5
					c5.1,0.4,9.6-0.1,13.4-1.1c-4.9,15.4-10.2,42.4,0.7,68.6C300.9,183.9,295.2,178.9,287.6,172.4"/>
				<path class="st0" d="M281.4,178c-5.6-22.8-58.2-30.4-58.2-30.4c-5.4,25.8-22.3,26.8-22.3,26.8s11.3,12.5-2.9,34.7
					c0,0,42.9,31.4,62.9,19.1c20-12.3,29.2-17.3,29.2-17.3S287,200.8,281.4,178 M257.7,222c-1.3,0.8-2.8,1.3-4.6,1.6
					c-2.8,0.5-6.3,0.3-10.1-0.5c-3.8-0.8-8-2.1-12.1-3.8c-7.4-3-14.7-7.1-20-10.4c-1.4-0.9-2.7-1.7-3.8-2.4c0.7-1.3,1.3-2.6,1.8-3.9
					c1.9-4.7,2.9-9.1,3.1-13.1c13.1,9.4,37.2,22.8,65.5,20.5C272.7,212.8,266.1,216.8,257.7,222"/>
				<path class="st0" d="M302.4,264.6c-5.5-22.8-7.4-33.2-7.4-33.2s-10.5-0.1-33.9-1.8c-23.4-1.7-46.9,46-46.9,46
					c22.8,13.1,18.6,29.5,18.6,29.5s15.4-6.9,32.1,13.5C264.8,318.5,307.9,287.4,302.4,264.6 M295.6,270.7c-0.4,2.8-1.7,6-3.6,9.4
					c-1.9,3.4-4.5,6.9-7.4,10.3c-5.2,6.1-11.3,11.8-16.1,15.8c-1.3,1.1-2.4,2-3.4,2.8c-1.1-1-2.1-2-3.2-2.9c-3.9-3.3-7.8-5.6-11.4-7
					c13-9.6,33.2-28.3,39.8-55.9c1.2,5.4,2.9,12.8,5.2,22.5C295.8,267.2,295.9,268.8,295.6,270.7"/>
				<path class="st0" d="M389.5,288.8c0,0-16.2-50.6-39.7-52.4c-23.4-1.8-33.8-3.2-33.8-3.2s-3.4,9.9-12.2,31.7
					c-8.8,21.8,29.2,58.9,29.2,58.9c19.5-17.7,33.8-8.6,33.8-8.6S365,298.4,389.5,288.8 M366.7,296.4c-5.1-15.3-16.7-40.3-40.9-55.1
					c5.5,0.5,13.1,1.2,23,2c1.5,0.1,3,0.6,4.7,1.4c2.5,1.3,5.2,3.5,7.9,6.4c2.6,2.9,5.2,6.4,7.5,10.2c4.2,6.8,7.7,14.4,10.1,20.2
					c0.6,1.5,1.2,2.9,1.6,4.2c-1.3,0.7-2.6,1.4-3.7,2.1C372.6,290.4,369.2,293.4,366.7,296.4"/>
				<path class="st0" d="M417.9,190.8c0,0-16.5-3.5-18.1-29.8c0,0-53.2-0.2-62.1,21.5c-8.9,21.7-13.5,31.2-13.5,31.2
					s8.4,6.3,26.4,21.4c18,15.1,65-9.6,65-9.6C404.8,201.5,417.9,190.8,417.9,190.8 M335,206.9c2.2-5.1,5.2-12.1,9-21.3
					c0.6-1.4,1.5-2.7,2.8-4c2-2,4.9-3.9,8.5-5.5c3.6-1.6,7.7-3,12-4c7.8-1.9,16-2.9,22.3-3.4c1.6-0.1,3.1-0.2,4.5-0.3
					c0.2,1.5,0.5,2.9,0.8,4.2c1.2,5,3,9.1,5.1,12.4C383.9,185.1,356.5,188.4,335,206.9"/>
			</g>
			<circle class="st5" cx="308.6" cy="317.5" r="269.3"/>
			<path class="st6" d="M566.1,317.5C566.1,175.3,450.8,60,308.6,60C166.4,60,51.1,175.3,51.1,317.5c0,4.8,0.1,9.6,0.4,14.3h514.3
				C566,327.1,566.1,322.3,566.1,317.5z"/>
			<path class="st6" d="M308.6,575.1c96.1,0,179.9-52.7,224.2-130.7H84.4C128.7,522.4,212.5,575.1,308.6,575.1z"/>
			<path class="st0" d="M75,331.8c-0.3-4.7-0.4-9.5-0.4-14.3c0-129.3,104.8-234.1,234.1-234.1c129.3,0,234.1,104.8,234.1,234.1
				c0,4.8-0.2,9.6-0.4,14.3h23.5c0.3-4.7,0.4-9.5,0.4-14.3C566.1,175.3,450.8,60,308.6,60C166.4,60,51.1,175.3,51.1,317.5
				c0,4.8,0.1,9.6,0.4,14.3H75z"/>
			<g>
				<path class="st0" d="M277.5,374.6c-1.9-1.1-4-1.6-6.3-1.6c-2.3,0-4.4,0.5-6.3,1.6c-1.9,1.1-3.3,2.5-4.4,4.5
					c-1.1,1.9-1.6,4.1-1.6,6.5s0.5,4.6,1.6,6.5c1.1,1.9,2.5,3.4,4.4,4.5c1.9,1.1,4,1.6,6.3,1.6c2.3,0,4.4-0.5,6.3-1.6
					c1.9-1.1,3.3-2.5,4.4-4.5c1.1-1.9,1.6-4.1,1.6-6.5s-0.5-4.6-1.6-6.5C280.8,377.2,279.3,375.7,277.5,374.6z"/>
				<polygon class="st0" points="354.4,389.9 366.8,389.9 360.6,374.9 				"/>
				<path class="st0" d="M327.3,392.1c1.1-1.9,1.6-4.1,1.6-6.5s-0.5-4.6-1.6-6.5c-1.1-1.9-2.5-3.4-4.4-4.5c-1.9-1.1-4-1.6-6.3-1.6
					s-4.4,0.5-6.3,1.6c-1.9,1.1-3.3,2.5-4.4,4.5c-1.1,1.9-1.6,4.1-1.6,6.5s0.5,4.6,1.6,6.5c1.1,1.9,2.5,3.4,4.4,4.5
					c1.9,1.1,4,1.6,6.3,1.6s4.4-0.5,6.3-1.6C324.7,395.5,326.2,394,327.3,392.1z"/>
				<path class="st0" d="M51.9,338.1c2.8,35.9,13.1,69.8,29.1,100h455.2c16.1-30.3,26.3-64.1,29.1-100H51.9z M210.7,405.2h-9.1V366
					h9.1V405.2z M246,399.8c-1.3,1.8-3.1,3.3-5.6,4.4c-2.5,1.1-5.5,1.6-9.1,1.6c-3.1,0-6.1-0.4-9-1.3c-2.9-0.8-5.2-1.9-7-3.3
					l3.1-6.8c1.7,1.2,3.7,2.2,6,3c2.3,0.7,4.6,1.1,6.9,1.1c2.6,0,4.5-0.4,5.7-1.1c1.2-0.8,1.8-1.8,1.8-3.1c0-0.9-0.4-1.7-1.1-2.3
					c-0.7-0.6-1.7-1.1-2.8-1.5c-1.1-0.4-2.7-0.8-4.6-1.2c-3-0.7-5.4-1.4-7.3-2.1c-1.9-0.7-3.5-1.8-4.9-3.4c-1.4-1.6-2-3.7-2-6.3
					c0-2.3,0.6-4.3,1.8-6.2c1.2-1.8,3.1-3.3,5.6-4.4c2.5-1.1,5.5-1.6,9.1-1.6c2.5,0,4.9,0.3,7.3,0.9c2.4,0.6,4.5,1.5,6.3,2.6
					l-2.8,6.9c-3.6-2.1-7.2-3.1-10.9-3.1c-2.5,0-4.4,0.4-5.6,1.2c-1.2,0.8-1.8,1.9-1.8,3.2c0,1.3,0.7,2.3,2.1,3
					c1.4,0.7,3.5,1.3,6.4,1.9c3,0.7,5.4,1.4,7.3,2.1c1.9,0.7,3.5,1.8,4.9,3.4c1.4,1.5,2,3.6,2,6.2C247.9,396,247.3,398,246,399.8z
					 M289.8,396c-1.9,3.1-4.4,5.5-7.7,7.3c-3.2,1.8-6.9,2.6-11,2.6c-4.1,0-7.7-0.9-11-2.6c-3.3-1.8-5.8-4.2-7.7-7.3
					c-1.8-3.1-2.8-6.5-2.8-10.4c0-3.8,0.9-7.3,2.8-10.4c1.8-3.1,4.4-5.5,7.7-7.3c3.3-1.8,6.9-2.6,11-2.6c4.1,0,7.7,0.9,11,2.6
					c3.2,1.8,5.8,4.2,7.7,7.3c1.9,3.1,2.8,6.5,2.8,10.4C292.6,389.4,291.7,392.9,289.8,396z M335.4,413c-1.8,0.8-3.8,1.2-6,1.2
					c-2.9,0-5.5-0.6-7.9-1.9c-2.4-1.3-5-3.5-8.1-6.6c-3.5-0.4-6.7-1.6-9.5-3.4c-2.8-1.8-4.9-4.2-6.5-7.1c-1.5-2.9-2.3-6.1-2.3-9.6
					c0-3.8,0.9-7.3,2.8-10.4s4.4-5.5,7.7-7.3c3.3-1.8,6.9-2.6,11-2.6s7.7,0.9,11,2.6c3.2,1.8,5.8,4.2,7.7,7.3
					c1.9,3.1,2.8,6.5,2.8,10.4c0,4.6-1.3,8.5-3.8,12c-2.6,3.4-5.9,5.8-10.2,7.2c0.9,1,1.8,1.7,2.7,2.1c0.9,0.4,1.8,0.6,2.8,0.6
					c2.4,0,4.6-1,6.4-2.9l4,4.8C338.7,411,337.2,412.2,335.4,413z M373.2,405.2l-3.5-8.4h-18.2l-3.5,8.4h-9.3l17.5-39.2h9l17.5,39.2
					H373.2z M410,405.2l-7.6-10.9H402h-7.9v10.9H385V366h17c3.5,0,6.5,0.6,9,1.7c2.6,1.2,4.5,2.8,5.9,4.9c1.4,2.1,2.1,4.6,2.1,7.6
					c0,2.9-0.7,5.4-2.1,7.5c-1.4,2.1-3.4,3.7-6,4.8l8.8,12.6H410z"/>
				<path class="st0" d="M407.7,375.1c-1.4-1.2-3.5-1.8-6.2-1.8h-7.4V387h7.4c2.7,0,4.8-0.6,6.2-1.8c1.4-1.2,2.1-2.9,2.1-5
					C409.8,378,409.1,376.3,407.7,375.1z"/>
			</g>
			<g>
				<path class="st0" d="M377.8,530.5c-1.1-0.6-2.2-0.7-3.5-0.3c-1.3,0.4-2.2,1.1-2.7,2.2c-0.6,1.1-0.6,2.4-0.2,3.8
					c0.4,1.4,1.2,2.5,2.3,3.1c1.1,0.6,2.2,0.7,3.5,0.3c1.3-0.4,2.2-1.1,2.7-2.2s0.6-2.4,0.2-3.8
					C379.6,532.1,378.9,531.1,377.8,530.5z"/>
				<path class="st0" d="M205.7,471.6c0-1.6-0.5-2.8-1.5-3.6c-1-0.8-2.5-1.3-4.4-1.3h-5.3v9.8h5.3c1.9,0,3.4-0.4,4.4-1.3
					C205.2,474.3,205.7,473.1,205.7,471.6z"/>
				<path class="st0" d="M204.6,523.4c-0.3,0.6-0.3,1.2,0,1.7c0.3,0.6,0.9,1.1,1.7,1.4c0.8,0.4,1.6,0.5,2.4,0.5
					c0.8-0.1,1.5-0.4,2.1-1l0.8-1.6l-3.2-1.5C206.5,522,205.2,522.2,204.6,523.4z"/>
				<path class="st0" d="M367.8,475.2c1-0.9,1.5-2.1,1.5-3.6c0-1.6-0.5-2.8-1.5-3.6c-1-0.8-2.5-1.3-4.4-1.3h-5.3v9.8h5.3
					C365.4,476.5,366.8,476,367.8,475.2z"/>
				<path class="st0" d="M416.5,466.7h-5.9v17.4h5.9c2.8,0,5-0.8,6.7-2.3c1.7-1.6,2.5-3.7,2.5-6.3c0-2.7-0.8-4.8-2.5-6.3
					S419.3,466.7,416.5,466.7z"/>
				<path class="st0" d="M84.4,444.4c44.2,78,128,130.7,224.2,130.7c96.1,0,179.9-52.7,224.2-130.7H84.4z M379.1,461.4h21.2v5.2
					h-14.7v6.1h13v5h-13v6.5h15.2v5.2h-21.7V461.4z M351.6,461.4h12.1c2.5,0,4.6,0.4,6.5,1.2c1.8,0.8,3.2,2,4.2,3.5
					c1,1.5,1.5,3.3,1.5,5.4s-0.5,3.9-1.5,5.4s-2.4,2.7-4.3,3.5l6.3,9h-7l-5.4-7.8h-0.3h-5.6v7.8h-6.5V461.4z M326.6,461.4h21.2v5.2
					H333v6.1h13v5h-13v6.5h15.2v5.2h-21.7V461.4z M300.9,461.4h24.4v5.3h-9v22.7h-6.5v-22.7h-9V461.4z M268.8,461.4h6.5v28h-6.5
					V461.4z M240.1,468c1.3-2.2,3.2-3.9,5.5-5.2c2.3-1.2,5-1.9,7.9-1.9c2.5,0,4.7,0.4,6.7,1.2c2,0.8,3.7,2,5,3.6l-4.2,3.8
					c-2-2.1-4.4-3.2-7.2-3.2c-1.8,0-3.4,0.4-4.8,1.1c-1.4,0.7-2.5,1.8-3.2,3.2s-1.2,2.9-1.2,4.7c0,1.7,0.4,3.3,1.2,4.6
					s1.8,2.4,3.2,3.2c1.4,0.8,2.9,1.1,4.7,1.1c1.9,0,3.5-0.4,5-1.2V475h5.9v11.4c-1.5,1.1-3.3,2-5.3,2.6s-4,0.9-6,0.9
					c-2.9,0-5.5-0.6-7.8-1.9s-4.1-3-5.5-5.2c-1.3-2.2-2-4.7-2-7.5S238.8,470.2,240.1,468z M215.4,461.4h21.2v5.2h-14.7v6.1h13v5h-13
					v6.5h15.2v5.2h-21.7V461.4z M194.5,489.4H188v-28h12.1c2.5,0,4.6,0.4,6.5,1.2c1.8,0.8,3.2,2,4.2,3.5c1,1.5,1.5,3.3,1.5,5.4
					s-0.5,3.9-1.5,5.4s-2.4,2.7-4.3,3.5l6.3,9h-7l-5.4-7.8h-0.3h-5.6V489.4z M208.6,531.3l1-2c-1.6,1.1-3.6,1-5.9-0.1
					c-1.2-0.6-2.2-1.3-2.9-2.2c-0.7-0.9-1.1-1.8-1.2-2.7s0-1.9,0.5-2.8c0.7-1.5,1.8-2.4,3.4-2.7c1.5-0.3,3.5,0.1,5.8,1.2l3.7,1.8
					c0.5-1,0.6-1.9,0.2-2.8c-0.4-0.8-1.1-1.6-2.4-2.2c-0.9-0.4-1.8-0.7-2.7-0.8s-1.8-0.1-2.6,0.1l-0.1-4c1.2-0.2,2.4-0.2,3.8,0.1
					s2.7,0.7,4,1.3c2.5,1.2,4.1,2.7,4.9,4.5c0.8,1.8,0.6,3.9-0.6,6.3l-4.4,9.1L208.6,531.3z M217,535l9.2-22.7l4.8,1.9l-9.2,22.7
					L217,535z M232.7,535.3c0.6,1.1,1.5,1.9,2.7,2.3c1.7,0.6,3.2,0.2,4.6-1l3.1,3.3c-1.1,1.1-2.4,1.8-3.9,2.2
					c-1.6,0.3-3.3,0.2-5-0.4c-1.8-0.6-3.3-1.5-4.5-2.7c-1.2-1.2-1.9-2.6-2.3-4.2s-0.3-3.2,0.3-4.9c0.6-1.7,1.5-3,2.7-4.1
					c1.2-1,2.7-1.7,4.4-2c1.7-0.3,3.4-0.1,5.2,0.5c1.8,0.6,3.2,1.5,4.3,2.7c1.1,1.2,1.7,2.6,1.8,4.1l-4.5,0.8c-0.4-1.8-1.4-3-3-3.6
					c-1.3-0.4-2.5-0.4-3.6,0.2c-1.1,0.6-1.9,1.5-2.4,3S232.1,534.2,232.7,535.3z M262.1,549l-4.7-1.1l0.5-2.1
					c-0.8,0.6-1.8,1-2.8,1.1c-1,0.2-2.1,0.1-3.1-0.1c-2.3-0.5-3.9-1.6-4.9-3.2c-1-1.6-1.2-3.7-0.6-6.3l2.3-9.8l5,1.2l-2.2,9
					c-0.7,2.8,0.2,4.5,2.5,5c1.2,0.3,2.3,0.1,3.2-0.5c0.9-0.6,1.6-1.7,1.9-3.2l2-8.5l5,1.2L262.1,549z M298.1,543.5l-1.1,10.1
					l-5.1-0.6l1.1-9.3c0.2-1.4,0-2.5-0.5-3.2c-0.5-0.8-1.3-1.2-2.4-1.3c-1.2-0.1-2.2,0.1-3,0.8c-0.8,0.7-1.3,1.8-1.4,3.3l-1,8.9
					l-5.1-0.6l1.1-9.3c0.3-2.8-0.6-4.3-2.9-4.5c-1.2-0.1-2.2,0.1-3,0.8c-0.8,0.7-1.3,1.8-1.4,3.3l-1,8.9l-5.1-0.6l2-17.6l4.9,0.6
					l-0.2,2c0.7-0.7,1.6-1.1,2.6-1.4c1-0.3,2.1-0.4,3.2-0.2c1.2,0.1,2.3,0.5,3.3,1.1c0.9,0.6,1.7,1.4,2.2,2.4c0.8-0.8,1.8-1.4,3-1.8
					c1.2-0.4,2.4-0.5,3.7-0.3c2.2,0.3,3.9,1.1,5,2.5C298,538.9,298.4,540.9,298.1,543.5z M299.9,485.6c-0.9,1.3-2.2,2.4-4,3.1
					c-1.8,0.8-4,1.2-6.5,1.2c-2.2,0-4.4-0.3-6.4-0.9c-2.1-0.6-3.7-1.4-5-2.3l2.2-4.9c1.2,0.9,2.6,1.6,4.3,2.1c1.7,0.5,3.3,0.8,5,0.8
					c1.8,0,3.2-0.3,4.1-0.8c0.9-0.5,1.3-1.3,1.3-2.2c0-0.7-0.3-1.2-0.8-1.7c-0.5-0.4-1.2-0.8-2-1.1c-0.8-0.3-1.9-0.6-3.3-0.9
					c-2.1-0.5-3.9-1-5.2-1.5c-1.4-0.5-2.5-1.3-3.5-2.4c-1-1.1-1.5-2.6-1.5-4.5c0-1.6,0.4-3.1,1.3-4.4s2.2-2.4,4-3.1
					c1.8-0.8,3.9-1.2,6.5-1.2c1.8,0,3.5,0.2,5.2,0.6c1.7,0.4,3.2,1,4.5,1.8l-2,4.9c-2.6-1.5-5.2-2.2-7.8-2.2c-1.8,0-3.2,0.3-4,0.9
					c-0.9,0.6-1.3,1.4-1.3,2.3c0,1,0.5,1.7,1.5,2.1s2.5,0.9,4.6,1.4c2.1,0.5,3.9,1,5.2,1.5s2.5,1.3,3.5,2.4c1,1.1,1.5,2.6,1.5,4.4
					C301.2,482.8,300.8,484.3,299.9,485.6z M314.9,553.4l0-2.1c-0.7,0.8-1.5,1.4-2.4,1.8c-0.9,0.4-2,0.6-3.1,0.6
					c-2.3,0-4.2-0.6-5.6-2s-2.1-3.3-2.1-6l-0.1-10l5.1,0l0.1,9.3c0,2.9,1.2,4.3,3.6,4.3c1.2,0,2.2-0.4,3-1.2s1.1-2,1.1-3.6l-0.1-8.8
					l5.1,0l0.1,17.8L314.9,553.4z M337.9,549.4c-0.6,0.9-1.5,1.7-2.7,2.2c-1.2,0.6-2.7,1-4.4,1.1c-1.5,0.1-2.9,0.1-4.4-0.2
					c-1.4-0.2-2.6-0.6-3.5-1.1l1.4-3.8c0.8,0.4,1.8,0.8,3,1c1.1,0.2,2.3,0.3,3.3,0.2c2.2-0.2,3.2-0.8,3.1-1.9c0-0.5-0.4-0.8-1-1
					s-1.5-0.3-2.8-0.3c-1.5-0.1-2.7-0.2-3.7-0.4c-1-0.2-1.8-0.6-2.6-1.3c-0.8-0.7-1.2-1.7-1.3-3c-0.1-1.1,0.1-2.1,0.7-3.1
					c0.6-0.9,1.4-1.7,2.6-2.3c1.2-0.6,2.6-1,4.3-1.1c1.2-0.1,2.5-0.1,3.8,0.1c1.3,0.2,2.3,0.4,3.2,0.9l-1.4,3.8
					c-1.6-0.7-3.4-1-5.2-0.9c-1.1,0.1-1.9,0.3-2.4,0.7c-0.5,0.4-0.8,0.8-0.7,1.3c0,0.5,0.4,0.9,1,1.1c0.6,0.2,1.6,0.3,2.9,0.4
					c1.5,0.1,2.7,0.3,3.6,0.5s1.8,0.6,2.5,1.3c0.7,0.7,1.2,1.6,1.3,2.9C338.7,547.5,338.5,548.5,337.9,549.4z M346.9,549.9
					c-0.5,0.7-1.2,1.1-2.1,1.2c-0.9,0.1-1.7-0.1-2.4-0.6c-0.7-0.5-1.1-1.2-1.3-2.1c-0.1-0.9,0.1-1.7,0.6-2.4
					c0.5-0.7,1.2-1.1,2.1-1.2c0.9-0.1,1.7,0,2.4,0.5c0.7,0.5,1.1,1.2,1.3,2.1C347.6,548.4,347.4,549.2,346.9,549.9z M364.1,546.3
					c-1.2,1.1-2.7,1.8-4.6,2.2c-1.9,0.4-3.6,0.4-5.2-0.1s-3-1.3-4.1-2.5c-1.1-1.2-1.8-2.6-2.2-4.4c-0.4-1.7-0.3-3.3,0.3-4.9
					c0.5-1.5,1.5-2.8,2.8-3.9c1.3-1.1,2.9-1.8,4.8-2.2c1.8-0.4,3.5-0.3,5,0.1c1.5,0.5,2.8,1.4,3.7,2.7l-3.5,2.9
					c-1.2-1.4-2.7-1.9-4.4-1.6c-1.3,0.3-2.3,0.9-3,2c-0.7,1-0.9,2.3-0.6,3.8c0.3,1.5,1,2.6,2,3.3c1,0.7,2.2,0.9,3.5,0.6
					c1.7-0.4,2.9-1.4,3.4-3.2l4.4,1.3C366,543.9,365.3,545.2,364.1,546.3z M385.2,536.9c-0.4,1.6-1.2,2.9-2.4,4.1
					c-1.2,1.2-2.7,2-4.5,2.6s-3.5,0.7-5.2,0.3c-1.6-0.3-3.1-1-4.3-2.1c-1.2-1.1-2.1-2.5-2.6-4.2c-0.5-1.7-0.6-3.3-0.2-4.9
					s1.2-2.9,2.4-4.1c1.2-1.2,2.7-2,4.5-2.6s3.5-0.6,5.1-0.3c1.6,0.3,3.1,1,4.3,2.1c1.2,1.1,2.1,2.5,2.6,4.2
					C385.6,533.7,385.6,535.3,385.2,536.9z M414.3,529.4l-3.8-8.6c-0.6-1.3-1.3-2.1-2.1-2.5s-1.7-0.4-2.7,0.1
					c-1.1,0.5-1.8,1.2-2.2,2.2c-0.3,1-0.2,2.2,0.4,3.6l3.6,8.2l-4.7,2.1l-3.8-8.6c-1.1-2.6-2.7-3.4-4.8-2.5
					c-1.1,0.5-1.8,1.2-2.1,2.2c-0.3,1-0.2,2.2,0.4,3.6l3.6,8.2l-4.7,2.1l-7.2-16.2l4.5-2l0.8,1.9c0.3-1,0.8-1.8,1.5-2.5
					c0.7-0.7,1.6-1.4,2.6-1.8c1.1-0.5,2.3-0.7,3.4-0.7c1.1,0,2.2,0.4,3.1,1c0.3-1.1,0.8-2.2,1.7-3.1s1.8-1.6,3-2.2
					c2-0.9,3.9-1,5.6-0.3s3.1,2.2,4.2,4.6l4.1,9.3L414.3,529.4z M430.3,482.8c-1.3,2.1-3.1,3.7-5.4,4.9c-2.3,1.2-5,1.7-8.1,1.7
					h-12.7v-28h12.7c3,0,5.7,0.6,8.1,1.7c2.3,1.2,4.1,2.8,5.4,4.9c1.3,2.1,1.9,4.6,1.9,7.4C432.3,478.2,431.6,480.7,430.3,482.8z"/>
			</g>
			<g>
				<path class="st7" d="M76.1,331.8c-0.3-5.1-0.5-10.2-0.5-15.3c0-62.2,24.2-120.8,68.3-164.8s102.5-68.3,164.8-68.3
					s120.8,24.2,164.8,68.3s68.3,102.5,68.3,164.8c0,5.1-0.2,10.2-0.5,15.3h7c0.3-5.1,0.5-10.2,0.5-15.3c0-64.1-25-124.4-70.3-169.7
					S372.7,76.5,308.6,76.5s-124.4,25-169.7,70.3S68.6,252.4,68.6,316.5c0,5.1,0.2,10.2,0.5,15.3H76.1z"/>
				<path class="st7" d="M503.5,444.4c-12.5,19-27.8,36.3-45.8,51.2l4.5,5.4c19.7-16.4,36.3-35.5,49.6-56.6H503.5z"/>
				<path class="st7" d="M113.7,444.4h-8.3c13.3,21.1,29.9,40.3,49.6,56.7l4.5-5.4C141.6,480.7,126.2,463.4,113.7,444.4z"/>
			</g>
		</g>
	</g>
</g>
<g id="Layer_3">
</g>
</svg>
